<?xml version="1.0" encoding="UTF-8"?>
<svg id='internal_svg' width="504pt" height="504pt" viewBox="0 0 504 504" version="1.1">
<defs>

<marker id="triangle" viewBox="0 0 10 10"
      refX="1" refY="5"
      markerUnits="strokeWidth"
      markerWidth="10" markerHeight="10"
      orient="auto">
  <path d="M 0 0 L 8 4 L 0 8 z" fill="#aaaaaa"/>
</marker>
</defs>
<g id="surface1">


<path class="graph_line out_pain in_1" style="fill:none;stroke-width:0.75;stroke-linecap:round;stroke-linejoin:round;stroke:rgb(27.843137%,27.843137%,27.843137%);stroke-opacity:1;stroke-miterlimit:10;" d="M 132.488281 153.773438 L 128.972656 158.765625 L 124.933594 164.484375 L 120.496094 170.761719 L 115.777344 177.441406 L 110.894531 184.359375 L 105.972656 191.359375 L 101.132813 198.277344 L 96.492188 204.949219 L 92.175781 211.21875 L 88.296875 216.921875 "/>
<path class="graph_line out_pain in_7" style="fill:none;stroke-width:0.75;stroke-linecap:round;stroke-linejoin:round;stroke:rgb(27.843137%,27.843137%,27.843137%);stroke-opacity:1;stroke-miterlimit:10;" d="M 121.105469 134.828125 L 116.71875 132.6875 L 112.027344 130.386719 L 107.09375 127.960938 L 101.984375 125.441406 L 96.75 122.855469 L 91.457031 120.242188 L 86.164063 117.625 L 80.933594 115.042969 L 75.820313 112.519531 L 70.890625 110.09375 "/>
<path class="graph_line out_pain in_16"  style="fill:none;stroke-width:0.75;stroke-linecap:round;stroke-linejoin:round;stroke:rgb(27.843137%,27.843137%,27.843137%);stroke-opacity:1;stroke-miterlimit:10;" d="M 157.261719 144.300781 L 163.824219 144.300781 L 170.976563 144.304688 L 178.578125 144.316406 L 186.496094 144.335938 L 194.585938 144.367188 L 202.71875 144.414063 L 210.753906 144.480469 L 218.558594 144.570313 L 225.992188 144.683594 L 232.917969 144.828125 "/>
<path class="graph_line out_distress in_20" style="fill:none;stroke-width:0.75;stroke-linecap:round;stroke-linejoin:round;stroke:rgb(27.843137%,27.843137%,27.843137%);stroke-opacity:1;stroke-miterlimit:10;" d="M 393.605469 169.035156 L 397.046875 164.773438 L 400.890625 159.960938 L 405.054688 154.707031 L 409.460938 149.121094 L 414.027344 143.3125 L 418.675781 137.394531 L 423.320313 131.480469 L 427.886719 125.671875 L 432.292969 120.085938 L 436.457031 114.832031 "/>
<path class="graph_line out_dryMouth in_13"  style="fill:none;stroke-width:0.75;stroke-linecap:round;stroke-linejoin:round;stroke:rgb(27.843137%,27.843137%,27.843137%);stroke-opacity:1;stroke-miterlimit:10;" d="M 281.125 413.210938 L 281.964844 414.992188 L 282.875 416.855469 L 283.84375 418.789063 L 284.851563 420.78125 L 285.894531 422.816406 L 286.957031 424.882813 L 288.027344 426.964844 L 289.09375 429.058594 L 290.144531 431.144531 L 291.167969 433.207031 "/>
<path class="graph_line out_dryMouth in_4" style="fill:none;stroke-width:0.75;stroke-linecap:round;stroke-linejoin:round;stroke:rgb(27.843137%,27.843137%,27.843137%);stroke-opacity:1;stroke-miterlimit:10;" d="M 248.988281 402.6875 L 244.476563 402.527344 L 239.804688 402.371094 L 235.023438 402.210938 L 230.175781 402.054688 L 225.300781 401.898438 L 220.449219 401.738281 L 215.660156 401.582031 L 210.980469 401.421875 L 206.449219 401.265625 L 202.121094 401.109375 "/>
<path class="graph_line out_dryMouth in_17"  style="fill:none;stroke-width:0.75;stroke-linecap:round;stroke-linejoin:round;stroke:rgb(27.843137%,27.843137%,27.843137%);stroke-opacity:1;stroke-miterlimit:10;" d="M 285.140625 394.265625 L 289.71875 389.304688 L 294.910156 383.675781 L 300.582031 377.535156 L 306.578125 371.035156 L 312.761719 364.335938 L 318.984375 357.589844 L 325.101563 350.949219 L 330.96875 344.574219 L 336.445313 338.613281 L 341.382813 333.222656 "/>
<path class="graph_line out_sadness in_19" style="fill:none;stroke-width:0.75;stroke-linecap:round;stroke-linejoin:round;stroke:rgb(27.843137%,27.843137%,27.843137%);stroke-opacity:1;stroke-miterlimit:10;" d="M 390.257813 127.460938 L 394.542969 131.316406 L 399.296875 135.566406 L 404.425781 140.128906 L 409.84375 144.933594 L 415.449219 149.890625 L 421.160156 154.929688 L 426.875 159.96875 L 432.507813 164.929688 L 437.964844 169.730469 L 443.152344 174.296875 "/>
<path class="graph_line out_mucus in_2"  style="fill:none;stroke-width:0.75;stroke-linecap:round;stroke-linejoin:round;stroke:rgb(27.843137%,27.843137%,27.843137%);stroke-opacity:1;stroke-miterlimit:10;" d="M 269.742188 353.746094 L 265.574219 351.289063 L 261.140625 348.675781 L 256.496094 345.945313 L 251.703125 343.128906 L 246.8125 340.261719 L 241.878906 337.378906 L 236.964844 334.511719 L 232.121094 331.703125 L 227.40625 328.980469 L 222.875 326.382813 "/>
<path class="graph_line out_mucus in_5" style="fill:none;stroke-width:0.75;stroke-linecap:round;stroke-linejoin:round;stroke:rgb(27.843137%,27.843137%,27.843137%);stroke-opacity:1;stroke-miterlimit:10;" d="M 265.054688 366.902344 L 257.910156 368.066406 L 250.21875 369.328125 L 242.128906 370.65625 L 233.773438 372.03125 L 225.300781 373.414063 L 216.847656 374.78125 L 208.558594 376.109375 L 200.566406 377.359375 L 193.015625 378.511719 L 186.050781 379.53125 "/>
<path class="graph_line out_mucus in_10"  style="fill:none;stroke-width:0.75;stroke-linecap:round;stroke-linejoin:round;stroke:rgb(27.843137%,27.843137%,27.843137%);stroke-opacity:1;stroke-miterlimit:10;" d="M 297.863281 353.746094 L 302.40625 349.703125 L 307.519531 345.210938 L 313.101563 340.359375 L 319.042969 335.238281 L 325.230469 329.933594 L 331.558594 324.53125 L 337.921875 319.125 L 344.207031 313.800781 L 350.304688 308.648438 L 356.113281 303.753906 "/>
<path class="graph_line out_mucus in_14" style="fill:none;stroke-width:0.75;stroke-linecap:round;stroke-linejoin:round;stroke:rgb(27.843137%,27.843137%,27.843137%);stroke-opacity:1;stroke-miterlimit:10;" d="M 300.542969 372.691406 L 304.546875 375.492188 L 308.890625 378.507813 L 313.507813 381.695313 L 318.335938 385.007813 L 323.304688 388.414063 L 328.355469 391.863281 L 333.421875 395.320313 L 338.441406 398.742188 L 343.347656 402.089844 L 348.078125 405.316406 "/>
<path class="graph_line out_swallow in_3"  style="fill:none;stroke-width:0.75;stroke-linecap:round;stroke-linejoin:round;stroke:rgb(27.843137%,27.843137%,27.843137%);stroke-opacity:1;stroke-miterlimit:10;" d="M 267.066406 246.917969 L 263.679688 249.734375 L 259.996094 252.792969 L 256.066406 256.035156 L 251.960938 259.421875 L 247.730469 262.902344 L 243.441406 266.429688 L 239.15625 269.960938 L 234.925781 273.441406 L 230.820313 276.828125 L 226.890625 280.070313 "/>
<path class="graph_line out_swallow in_9" style="fill:none;stroke-width:0.75;stroke-linecap:round;stroke-linejoin:round;stroke:rgb(27.843137%,27.843137%,27.843137%);stroke-opacity:1;stroke-miterlimit:10;" d="M 303.890625 246.917969 L 305.699219 247.566406 L 307.511719 248.234375 L 309.332031 248.925781 L 311.164063 249.628906 L 313.011719 250.339844 L 314.878906 251.046875 L 316.773438 251.75 L 318.695313 252.441406 L 320.648438 253.113281 L 322.636719 253.757813 "/>
<path class="graph_line out_swallow in_11"  style="fill:none;stroke-width:0.75;stroke-linecap:round;stroke-linejoin:round;stroke:rgb(27.843137%,27.843137%,27.843137%);stroke-opacity:1;stroke-miterlimit:10;" d="M 269.742188 227.445313 L 266.136719 223.9375 L 262.199219 220.085938 L 258 215.953125 L 253.597656 211.609375 L 249.070313 207.121094 L 244.484375 202.554688 L 239.902344 197.972656 L 235.398438 193.449219 L 231.039063 189.042969 L 226.890625 184.820313 "/>
<path class="graph_line out_swallow in_15" style="fill:none;stroke-width:0.75;stroke-linecap:round;stroke-linejoin:round;stroke:rgb(27.843137%,27.843137%,27.843137%);stroke-opacity:1;stroke-miterlimit:10;" d="M 279.785156 227.445313 L 280.023438 223.359375 L 280.332031 218.746094 L 280.695313 213.707031 L 281.101563 208.351563 L 281.542969 202.78125 L 282.003906 197.097656 L 282.472656 191.410156 L 282.933594 185.820313 L 283.382813 180.429688 L 283.804688 175.347656 "/>
<path class="graph_line out_swallow in_18" style="fill:none;stroke-width:0.75;stroke-linecap:round;stroke-linejoin:round;stroke:rgb(27.843137%,27.843137%,27.843137%);stroke-opacity:1;stroke-miterlimit:10;" d="M 282.464844 246.917969 L 283.78125 251.335938 L 285.300781 256.292969 L 286.984375 261.675781 L 288.785156 267.363281 L 290.664063 273.230469 L 292.585938 279.164063 L 294.507813 285.039063 L 296.390625 290.734375 L 298.191406 296.136719 L 299.871094 301.121094 "/>
<path class="graph_line out_taste in_1" style="fill:none;stroke-width:0.75;stroke-linecap:round;stroke-linejoin:round;stroke:rgb(27.843137%,27.843137%,27.843137%);stroke-opacity:1;stroke-miterlimit:10;" d="M 101.019531 307.4375 L 99.519531 302.457031 L 97.855469 296.78125 L 96.058594 290.5625 L 94.175781 283.953125 L 92.230469 277.113281 L 90.269531 270.191406 L 88.324219 263.347656 L 86.429688 256.730469 L 84.625 250.503906 L 82.941406 244.8125 "/>
<path class="graph_line out_taste in_2" style="fill:none;stroke-width:0.75;stroke-linecap:round;stroke-linejoin:round;stroke:rgb(27.843137%,27.843137%,27.843137%);stroke-opacity:1;stroke-miterlimit:10;" d="M 121.773438 316.382813 L 126.804688 316.367188 L 132.191406 316.324219 L 137.863281 316.253906 L 143.734375 316.164063 L 149.726563 316.054688 L 155.761719 315.929688 L 161.753906 315.789063 L 167.625 315.640625 L 173.296875 315.488281 L 178.6875 315.328125 "/>
<path class="graph_line out_taste in_3" style="fill:none;stroke-width:0.75;stroke-linecap:round;stroke-linejoin:round;stroke:rgb(27.843137%,27.843137%,27.843137%);stroke-opacity:1;stroke-miterlimit:10;" d="M 121.773438 312.699219 L 127.460938 311.535156 L 133.605469 310.265625 L 140.105469 308.914063 L 146.851563 307.503906 L 153.746094 306.054688 L 160.679688 304.589844 L 167.546875 303.132813 L 174.246094 301.703125 L 180.671875 300.324219 L 186.71875 299.015625 "/>
<path class="graph_line out_taste in_5" style="transform:translate(-3px,-10px);fill:none;stroke-width:0.75;stroke-linecap:round;stroke-linejoin:round;stroke:rgb(27.843137%,27.843137%,27.843137%);stroke-opacity:1;stroke-miterlimit:10;" d="M 112.402344 326.382813 L 115.804688 330.0625 L 119.535156 334.101563 L 123.527344 338.421875 L 127.699219 342.933594 L 131.984375 347.5625 L 136.3125 352.222656 L 140.605469 356.832031 L 144.796875 361.308594 L 148.808594 365.570313 L 152.574219 369.53125 "/>
<path class="graph_line out_taste in_8" style="fill:none;stroke-width:0.75;stroke-linecap:round;stroke-linejoin:round;stroke:rgb(27.843137%,27.843137%,27.843137%);stroke-opacity:1;stroke-miterlimit:10;" d="M 97.671875 307.4375 L 94.394531 302.269531 L 90.660156 296.359375 L 86.574219 289.875 L 82.234375 282.984375 L 77.753906 275.863281 L 73.230469 268.675781 L 68.773438 261.597656 L 64.484375 254.796875 L 60.46875 248.441406 L 56.832031 242.707031 "/>
<path class="graph_line out_taste in_4" style="transform:translate(-17px,-5px);fill:none;stroke-width:0.75;stroke-linecap:round;stroke-linejoin:round;stroke:rgb(27.843137%,27.843137%,27.843137%);stroke-opacity:1;stroke-miterlimit:10;" d="M 112.402344 326.382813 L 116.960938 331.203125 L 122.105469 336.714844 L 127.714844 342.769531 L 133.644531 349.199219 L 139.769531 355.851563 L 145.953125 362.566406 L 152.066406 369.1875 L 157.972656 375.554688 L 163.542969 381.511719 L 168.644531 386.898438  L 178.644531 396.898438 "/>
<path class="graph_line out_sores in_6" style="fill:none;stroke-width:0.75;stroke-linecap:round;stroke-linejoin:round;stroke:rgb(27.843137%,27.843137%,27.843137%);stroke-opacity:1;stroke-miterlimit:10;" d="M 88.96875 149.035156 L 90.488281 144.617188 L 92.207031 139.640625 L 94.089844 134.207031 L 96.09375 128.425781 L 98.175781 122.394531 L 100.296875 116.222656 L 102.417969 110.015625 L 104.5 103.871094 L 106.503906 97.898438 L 108.382813 92.203125 "/>
<path class="graph_line out_sores in_8" style="fill:none;stroke-width:0.75;stroke-linecap:round;stroke-linejoin:round;stroke:rgb(27.843137%,27.843137%,27.843137%);stroke-opacity:1;stroke-miterlimit:10;" d="M 80.265625 167.980469 L 78.304688 171.867188 L 76.082031 176.191406 L 73.648438 180.863281 L 71.0625 185.789063 L 68.378906 190.875 L 65.65625 196.019531 L 62.949219 201.136719 L 60.316406 206.125 L 57.8125 210.890625 L 55.492188 215.34375 "/>
<path class="graph_line out_sores in_12" style="fill:none;stroke-width:0.75;stroke-linecap:round;stroke-linejoin:round;stroke:rgb(27.843137%,27.843137%,27.843137%);stroke-opacity:1;stroke-miterlimit:10;" d="M 106.375 167.980469 L 111.128906 170.109375 L 116.109375 172.363281 L 121.265625 174.722656 L 126.546875 177.152344 L 131.902344 179.625 L 137.277344 182.113281 L 142.617188 184.589844 L 147.875 187.027344 L 152.996094 189.394531 L 157.929688 191.664063 "/>
<path class="graph_line out_1 in_sores" style="fill:none;stroke-width:0.75;stroke-linecap:round;stroke-linejoin:round;stroke:rgb(27.843137%,27.843137%,27.843137%);stroke-opacity:1;stroke-miterlimit:10;" d="M 79.59375 220.078125 L 80.015625 216.210938 L 80.46875 211.929688 L 80.945313 207.324219 L 81.4375 202.492188 L 81.9375 197.515625 L 82.4375 192.496094 L 82.929688 187.519531 L 83.40625 182.679688 L 83.859375 178.066406 L 84.28125 173.769531 "/>
<path class="graph_line out_2 in_swallow" style="fill:none;stroke-width:0.75;stroke-linecap:round;stroke-linejoin:round;stroke:rgb(27.843137%,27.843137%,27.843137%);stroke-opacity:1;stroke-miterlimit:10;" d="M 214.171875 304.277344 L 218.472656 299.75 L 223.261719 294.761719 L 228.429688 289.417969 L 233.859375 283.828125 L 239.445313 278.097656 L 245.070313 272.339844 L 250.625 266.652344 L 255.992188 261.152344 L 261.0625 255.941406 L 265.726563 251.128906 "/>
<path class="graph_line out_3 in_mucus" style="fill:none;stroke-width:0.75;stroke-linecap:round;stroke-linejoin:round;stroke:rgb(27.843137%,27.843137%,27.843137%);stroke-opacity:1;stroke-miterlimit:10;" d="M 221.535156 304.277344 L 225.796875 308.132813 L 230.488281 312.371094 L 235.503906 316.90625 L 240.753906 321.648438 L 246.140625 326.511719 L 251.570313 331.40625 L 256.941406 336.246094 L 262.15625 340.9375 L 267.128906 345.398438 L 271.75 349.535156 "/>
<path class="graph_line out_5 in_dryMouth" style="fill:none;stroke-width:0.75;stroke-linecap:round;stroke-linejoin:round;stroke:rgb(27.843137%,27.843137%,27.843137%);stroke-opacity:1;stroke-miterlimit:10;" d="M 178.6875 385.847656 L 183.792969 386.695313 L 189.414063 387.65625 L 195.460938 388.710938 L 201.847656 389.847656 L 208.480469 391.042969 L 215.273438 392.289063 L 222.140625 393.5625 L 228.992188 394.855469 L 235.738281 396.148438 L 242.292969 397.425781 "/>
<path class="graph_line out_6 in_pain" style="fill:none;stroke-width:0.75;stroke-linecap:round;stroke-linejoin:round;stroke:rgb(27.843137%,27.843137%,27.843137%);stroke-opacity:1;stroke-miterlimit:10;" d="M 123.113281 87.464844 L 124.175781 91.515625 L 125.332031 95.730469 L 126.5625 100.058594 L 127.839844 104.449219 L 129.140625 108.84375 L 130.441406 113.191406 L 131.71875 117.441406 L 132.949219 121.53125 L 134.105469 125.417969 L 135.164063 129.039063 "/>
<path class="graph_line out_7 in_sores" style="fill:none;stroke-width:0.75;stroke-linecap:round;stroke-linejoin:round;stroke:rgb(27.843137%,27.843137%,27.843137%);stroke-opacity:1;stroke-miterlimit:10;" d="M 55.492188 114.304688 L 57.519531 117.191406 L 59.574219 120.148438 L 61.644531 123.15625 L 63.71875 126.195313 L 65.785156 129.238281 L 67.832031 132.265625 L 69.847656 135.253906 L 71.816406 138.183594 L 73.730469 141.03125 L 75.578125 143.773438 "/>
<path class="graph_line out_8 in_pain" style="fill:none;stroke-width:0.75;stroke-linecap:round;stroke-linejoin:round;stroke:rgb(27.843137%,27.843137%,27.843137%);stroke-opacity:1;stroke-miterlimit:10;" d="M 56.160156 221.660156 L 61.292969 216.90625 L 67.316406 211.292969 L 74.050781 205.007813 L 81.304688 198.226563 L 88.882813 191.136719 L 96.605469 183.921875 L 104.28125 176.761719 L 111.714844 169.84375 L 118.726563 163.347656 L 125.121094 157.457031 "/>
<path class="graph_line out_9 in_mucus" style="fill:none;stroke-width:0.75;stroke-linecap:round;stroke-linejoin:round;stroke:rgb(27.843137%,27.843137%,27.843137%);stroke-opacity:1;stroke-miterlimit:10;" d="M 340.714844 285.859375 L 336.53125 291.777344 L 332.070313 298.085938 L 327.414063 304.671875 L 322.652344 311.421875 L 317.867188 318.222656 L 313.140625 324.960938 L 308.558594 331.523438 L 304.203125 337.792969 L 300.164063 343.660156 L 296.523438 349.007813 "/>
<path class="graph_line out_9 in_swallow" style="fill:none;stroke-width:0.75;stroke-linecap:round;stroke-linejoin:round;stroke:rgb(27.843137%,27.843137%,27.843137%);stroke-opacity:1;stroke-miterlimit:10;" d="M 355.441406 271.652344 L 350.730469 269.554688 L 345.855469 267.382813 L 340.859375 265.152344 L 335.785156 262.886719 L 330.671875 260.601563 L 325.554688 258.316406 L 320.480469 256.046875 L 315.484375 253.816406 L 310.609375 251.644531 L 305.898438 249.550781 "/>
<path class="graph_line out_11 in_sores" style="fill:none;stroke-width:0.75;stroke-linecap:round;stroke-linejoin:round;stroke:rgb(27.843137%,27.843137%,27.843137%);stroke-opacity:1;stroke-miterlimit:10;" d="M 190.738281 166.929688 L 184.828125 166.441406 L 178.414063 165.921875 L 171.585938 165.378906 L 164.449219 164.816406 L 157.09375 164.230469 L 149.617188 163.632813 L 142.117188 163.019531 L 134.6875 162.398438 L 127.429688 161.769531 L 120.4375 161.140625 "/>
<path class="graph_line out_12 in_swallow" style="fill:none;stroke-width:0.75;stroke-linecap:round;stroke-linejoin:round;stroke:rgb(27.843137%,27.843137%,27.843137%);stroke-opacity:1;stroke-miterlimit:10;" d="M 198.773438 208.503906 L 202.960938 209.984375 L 207.453125 211.570313 L 212.199219 213.25 L 217.132813 214.996094 L 222.207031 216.789063 L 227.359375 218.617188 L 232.535156 220.460938 L 237.679688 222.292969 L 242.734375 224.101563 L 247.648438 225.867188 "/>
<path class="graph_line out_13 in_mucus" style="fill:none;stroke-width:0.75;stroke-linecap:round;stroke-linejoin:round;stroke:rgb(27.843137%,27.843137%,27.843137%);stroke-opacity:1;stroke-miterlimit:10;" d="M 299.871094 437.417969 L 298.832031 431.832031 L 297.730469 425.878906 L 296.585938 419.667969 L 295.425781 413.304688 L 294.265625 406.894531 L 293.121094 400.550781 L 292.023438 394.378906 L 290.980469 388.480469 L 290.019531 382.972656 L 289.160156 377.953125 "/>
<path class="graph_line out_14 dryMouth" style="fill:none;stroke-width:0.75;stroke-linecap:round;stroke-linejoin:round;stroke:rgb(27.843137%,27.843137%,27.843137%);stroke-opacity:1;stroke-miterlimit:10;" d="M 347.410156 417.949219 L 343.9375 417.160156 L 340.367188 416.375 L 336.714844 415.59375 L 333 414.824219 L 329.246094 414.066406 L 325.476563 413.324219 L 321.703125 412.601563 L 317.949219 411.902344 L 314.238281 411.226563 L 310.585938 410.582031 "/>
<path class="graph_line out_4 in_mucus" style="fill:none;stroke-width:0.75;stroke-linecap:round;stroke-linejoin:round;stroke:rgb(27.843137%,27.843137%,27.843137%);stroke-opacity:1;stroke-miterlimit:10;" d="M 194.085938 395.84375 L 199.230469 394.003906 L 204.949219 391.976563 L 211.132813 389.796875 L 217.675781 387.5 L 224.464844 385.125 L 231.398438 382.699219 L 238.359375 380.257813 L 245.25 377.84375 L 251.949219 375.484375 L 258.359375 373.21875 "/>
<path class="graph_line out_15 in_pain" style="transform:translate(10px,2px);fill:none;stroke-width:0.75;stroke-linecap:round;stroke-linejoin:round;stroke:rgb(27.843137%,27.843137%,27.843137%);stroke-opacity:1;stroke-miterlimit:10;" d="M 268.402344 155.351563 L 260.109375 154.660156 L 250.664063 153.867188 L 240.316406 152.988281 L 229.324219 152.050781 L 217.9375 151.074219 L 206.410156 150.085938 L 194.996094 149.101563 L 183.945313 148.144531 L 173.515625 147.238281 L 163.957031 146.40625 L 153.957031 145.40625"/>
<path class="graph_line out_16 in_swallow" style="fill:none;stroke-width:0.75;stroke-linecap:round;stroke-linejoin:round;stroke:rgb(27.843137%,27.843137%,27.843137%);stroke-opacity:1;stroke-miterlimit:10;" d="M 259.699219 157.984375 L 261.160156 163.390625 L 262.71875 169.410156 L 264.351563 175.894531 L 266.03125 182.703125 L 267.734375 189.6875 L 269.4375 196.707031 L 271.117188 203.609375 L 272.746094 210.253906 L 274.304688 216.492188 L 275.769531 222.183594 "/>
<path class="graph_line out_17 in_swallow" style="fill:none;stroke-width:0.75;stroke-linecap:round;stroke-linejoin:round;stroke:rgb(27.843137%,27.843137%,27.843137%);stroke-opacity:1;stroke-miterlimit:10;" d="M 345.398438 313.226563 L 341.207031 308.515625 L 336.351563 303.027344 L 330.988281 296.929688 L 325.25 290.382813 L 319.289063 283.558594 L 313.246094 276.625 L 307.269531 269.746094 L 301.5 263.09375 L 296.085938 256.832031 L 291.167969 251.128906 "/>
<path class="graph_line out_18 in_dryMouth" style="fill:none;stroke-width:0.75;stroke-linecap:round;stroke-linejoin:round;stroke:rgb(27.843137%,27.843137%,27.843137%);stroke-opacity:1;stroke-miterlimit:10;" d="M 301.210938 324.800781 L 299.671875 329.8125 L 297.902344 335.570313 L 295.945313 341.917969 L 293.851563 348.691406 L 291.671875 355.71875 L 289.449219 362.84375 L 287.234375 369.898438 L 285.078125 376.71875 L 283.023438 383.144531 L 281.125 389.003906 "/>
<path class="graph_line out_19 in_distress" style="fill:none;stroke-width:0.75;stroke-linecap:round;stroke-linejoin:round;stroke:rgb(27.843137%,27.843137%,27.843137%);stroke-opacity:1;stroke-miterlimit:10;" d="M 439.804688 187.980469 L 437.558594 187.519531 L 435.242188 187.085938 L 432.871094 186.671875 L 430.453125 186.269531 L 428.003906 185.875 L 425.535156 185.476563 L 423.058594 185.074219 L 420.585938 184.660156 L 418.128906 184.226563 L 415.703125 183.769531 "/>
<path class="graph_line out_20 in_sadness" style="fill:none;stroke-width:0.75;stroke-linecap:round;stroke-linejoin:round;stroke:rgb(27.843137%,27.843137%,27.843137%);stroke-opacity:1;stroke-miterlimit:10;" d="M 431.101563 101.675781 L 428.632813 102.480469 L 426.066406 103.308594 L 423.417969 104.15625 L 420.710938 105.015625 L 417.960938 105.886719 L 415.191406 106.753906 L 412.425781 107.613281 L 409.675781 108.460938 L 406.96875 109.289063 L 404.320313 110.09375 "/>

<circle class="graph_circle rule_acute_1" cx="77.976563" cy="229.078125" r="12" style="opacity: 1;" fill="#f35959" id="rule_acute_1"></circle>

<circle class="graph_circle rule_acute_2" cx="201.867188" cy="317.804688" r="17" style="opacity: 1;" fill="rgb(93.333333%,44.705882%,44.705882%)" id="rule_acute_2"></circle>

<circle class="graph_circle rule_acute_3" cx="205.5625" cy="283.753906" r="17" style="opacity: 1;" fill="rgb(93.333333%,48.235294%,48.235294%)" id="rule_acute_3"></circle>

<circle class="graph_circle rule_acute_4" cx="180.355469" cy="404.214844" r="15" style="opacity: 1;" fill="rgb(93.333333%,62.745098%,62.745098%)" id="rule_acute_4"></circle>

<circle class="graph_circle rule_acute_4" cx="167.355469" cy="373.214844" r="15" style="opacity: 1;" fill="rgb(93.333333%,62.745098%,62.745098%)" id="rule_acute_4"></circle>

<circle class="graph_circle rule_acute_5" cx="122.53125" cy="73.46875" r="20" style="opacity: 1;" fill="rgb(93.333333%,62.745098%,62.745098%)" id="rule_acute_5"></circle>

<circle class="graph_circle rule_acute_6" cx="48.550781" cy="94.9375" r="20" style="opacity: 1;" fill="rgb(93.333333%,62.745098%,62.745098%)" id="rule_acute_6"></circle>

<circle class="graph_circle rule_acute_7" cx="52.179688" cy="229.550781" r="11" style="opacity: 1;" fill="rgb(93.333333%,66.27451%,66.27451%)" id="rule_acute_7"></circle>

<circle class="graph_circle rule_acute_8" cx="347.5625" cy="265.863281" r="21" style="opacity: 1;" fill="rgb(93.333333%,71.764706%,71.764706%)" id="rule_acute_8"></circle>

<circle class="graph_circle rule_acute_9" cx="379.007813" cy="293.703125" r="21" style="opacity: 1;" fill="rgb(93.333333%,71.764706%,71.764706%)" id="rule_acute_9"></circle>

<circle class="graph_circle rule_acute_10" cx="204.570313" cy="170.507813" r="20" style="opacity: 1;" fill="rgb(93.333333%,72.941176%,72.941176%)" id="rule_acute_10"></circle>

<circle class="graph_circle rule_acute_11" cx="180.109375" cy="200.1875" r="20" style="opacity: 1;" fill="rgb(93.333333%,72.941176%,72.941176%)" id="rule_acute_11"></circle>

<circle class="graph_circle rule_acute_12" cx="300" cy="456.46875" r="20" style="opacity: 1;" fill="rgb(93.333333%,76.862745%,76.862745%)" id="rule_acute_12"></circle>

<circle class="graph_circle rule_acute_13" cx="365.300781" cy="420.683594" r="20" style="opacity: 1;" fill="rgb(93.333333%,76.862745%,76.862745%)" id="rule_acute_13"></circle>

<circle class="graph_circle rule_acute_14" cx="288.300781" cy="154.929688" r="17" style="opacity: 1;" fill="rgb(93.333333%,82.352941%,82.352941%)" id="rule_acute_14"></circle>

<circle class="graph_circle rule_acute_15" cx="255.300781" cy="144.828125" r="17" style="opacity: 1;" fill="rgb(93.333333%,82.352941%,82.352941%)" id="rule_acute_15"></circle>

<circle class="graph_circle rule_acute_16" cx="349.300781" cy="319.117188" r="12" style="opacity: 1;" fill="rgb(93.333333%,85.882353%,85.882353%)" id="rule_acute_16"></circle>

<circle class="graph_circle rule_acute_17" cx="300.300781" cy="316.328125" r="12" style="opacity: 1;" fill="rgb(93.333333%,85.882353%,85.882353%)" id="rule_acute_17"></circle>

<circle class="graph_circle rule_acute_18" cx="461.332031" cy="188.664063" r="19" style="opacity: 1;" fill="rgb(93.333333%,86.27451%,86.27451%)" id="rule_acute_18"></circle>

<circle class="graph_circle rule_acute_19" cx="450.621094" cy="96.832031" r="19" style="opacity: 1;" fill="rgb(93.333333%,86.27451%,86.27451%)" id="rule_acute_19"></circle>
<!-- <path class="graph_circle rule_acute_19" style="pointer-events:all;fill-rule:nonzero;fill:rgb(93.333333%,85.882353%,85.882353%);fill-opacity:1;stroke-width:0.75;stroke-linecap:round;stroke-linejoin:round;stroke:rgb(0%,0%,0%);stroke-opacity:1;stroke-miterlimit:10;" d="M 136.464844 301.140625 C 136.464844 307.402344 127.070313 307.402344 127.070313 301.140625 C 127.070313 294.878906 136.464844 294.878906 136.464844 301.140625 "/> -->

<rect class="graph_symptom_container"  id="pain_acute_symp" x="125.105469" y="133.246094" height="18" width="30" style="opacity: 1;" fill="aliceblue"></rect>
<text class="graph_symptom_text" id="pain_acute_text" x="127.105469" y="145.246094" style='font-size:0.8em; font-family:sans-serif'>pain</text>

<rect class="graph_symptom_container"  id="distress_acute_symp" x="360.476563" y="167.980469" height="18" width="50" style="opacity: 1;" fill="aliceblue"></rect>
<text class="graph_symptom_text" id="distress_acute_text" x="363.476563" y="177.980469" style='font-size:0.8em; font-family:sans-serif'>distress</text>

<rect class="graph_symptom_container"  id="dryMouth_acute_symp" x="246.988281" y="395.210938" height="18" width="58" style="opacity: 1;" fill="aliceblue"></rect>
<text class="graph_symptom_text" id="dryMouth_acute_text" x="247.988281" y="408.980469" style='font-size:0.8em; font-family:sans-serif'>dryMouth</text>

<rect class="graph_symptom_container"  id="sadness_acute_symp" x="347.140625" y="107.460938" height="18" width="53" style="opacity: 1;" fill="aliceblue"></rect>
<text class="graph_symptom_text" id="sadness_acute_text" x="350.140625" y="120.460938" style='font-size:0.8em; font-family:sans-serif'>sadness</text>

<rect class="graph_symptom_container"  id="mucus_acute_symp" x="265.054688" y="354.691406" height="18" width="50" style="opacity: 1;" fill="aliceblue"></rect>
<text class="graph_symptom_text" id="mucus_acute_text" x="270.0546885" y="367.691406" style='font-size:0.8em; font-family:sans-serif'>mucus</text>

<rect class="graph_symptom_container"  id="swallow_acute_symp" x="254.34375" y="227.390625" height="18" width="55" style="opacity: 1;" fill="aliceblue"></rect>
<text  class="graph_symptom_text" id="swallow_acute_text" x="258.34375" y="239.390625" style='font-size:0.8em; font-family:sans-serif'>swallow</text>

<rect class="graph_symptom_container"  id="taste_acute_symp" x="85.621094" y="306.382813" height="18" width="40" style="opacity: 1;" fill="aliceblue"></rect>
<text  class="graph_symptom_text" id="taste_acute_text" x="90.621094" y="319.382813" style='font-size:0.8em; font-family:sans-serif'>taste</text>

<rect   class="graph_symptom_container" id="sores_acute_symp"  x="58.167969" y="147.980469" height="18" width="45" style="opacity: 1;" fill="aliceblue"></rect>
<text  class="graph_symptom_text" id="sores_acute_text" x="61.167969" y="159.980469" style='font-size:0.8em; font-family:sans-serif'>sores</text>



</g>
</svg>
