<?xml version="1.0" encoding="utf-8" standalone="no"?>
<!DOCTYPE svg PUBLIC "-//W3C//DTD SVG 1.1//EN"
  "http://www.w3.org/Graphics/SVG/1.1/DTD/svg11.dtd">
<!-- Created with matplotlib (https://matplotlib.org/) -->
<svg height="288pt" version="1.1" viewBox="0 0 432 288" width="432pt" xmlns="http://www.w3.org/2000/svg" xmlns:xlink="http://www.w3.org/1999/xlink">
 <defs>
  <style type="text/css">
*{stroke-linecap:butt;stroke-linejoin:round;}
  </style>
 </defs>
 <g id="figure_1">
  <g id="patch_1">
   <path d="M 0 288 
L 432 288 
L 432 0 
L 0 0 
z
" style="fill:#ffffff;"/>
  </g>
  <g id="axes_1">
   <g id="patch_2">
    <path clip-path="url(#pe78dd05aa7)" d="M 47.613482 139.293575 
Q 151.59686 90.761076 254.56712 42.701432 
" style="fill:none;stroke:#ff0000;stroke-linecap:round;"/>
    <path clip-path="url(#pe78dd05aa7)" d="M 250.09661 42.580852 
L 254.56712 42.701432 
L 251.78835 46.205492 
L 250.09661 42.580852 
z
" style="fill:#ff0000;stroke:#ff0000;stroke-linecap:round;"/>
   </g>
   <g id="patch_3">
    <path clip-path="url(#pe78dd05aa7)" d="M 373.38993 197.702864 
Q 320.871074 121.697844 268.987796 46.612629 
" style="fill:none;stroke:#ff0000;stroke-linecap:round;"/>
    <path clip-path="url(#pe78dd05aa7)" d="M 269.616311 51.040379 
L 268.987796 46.612629 
L 272.907105 48.766467 
L 269.616311 51.040379 
z
" style="fill:#ff0000;stroke:#ff0000;stroke-linecap:round;"/>
   </g>
   <g id="patch_4">
    <path clip-path="url(#pe78dd05aa7)" d="M 373.38993 197.702864 
Q 325.40267 228.040738 278.360427 257.781166 
" style="fill:none;stroke:#ff0000;stroke-linecap:round;"/>
    <path clip-path="url(#pe78dd05aa7)" d="M 282.810168 257.334175 
L 278.360427 257.781166 
L 280.672679 253.953178 
L 282.810168 257.334175 
z
" style="fill:#ff0000;stroke:#ff0000;stroke-linecap:round;"/>
   </g>
   <g id="patch_5">
    <path clip-path="url(#pe78dd05aa7)" d="M 373.38993 197.702864 
Q 289.550486 121.176912 206.536808 45.404692 
" style="fill:none;stroke:#ff0000;stroke-linecap:round;"/>
    <path clip-path="url(#pe78dd05aa7)" d="M 208.142839 49.578499 
L 206.536808 45.404692 
L 210.839472 46.624151 
L 208.142839 49.578499 
z
" style="fill:#ff0000;stroke:#ff0000;stroke-linecap:round;"/>
   </g>
   <g id="patch_6">
    <path clip-path="url(#pe78dd05aa7)" d="M 373.38993 197.702864 
Q 381.303582 171.989834 388.888363 147.345374 
" style="fill:none;stroke:#ff0000;stroke-linecap:round;"/>
    <path clip-path="url(#pe78dd05aa7)" d="M 385.800237 150.580105 
L 388.888363 147.345374 
L 389.623272 151.756713 
L 385.800237 150.580105 
z
" style="fill:#ff0000;stroke:#ff0000;stroke-linecap:round;"/>
   </g>
   <g id="patch_7">
    <path clip-path="url(#pe78dd05aa7)" d="M 62.363919 206.447356 
Q 162.048933 233.589878 260.655187 260.438671 
" style="fill:none;stroke:#ff0000;stroke-linecap:round;"/>
    <path clip-path="url(#pe78dd05aa7)" d="M 257.321133 257.458053 
L 260.655187 260.438671 
L 256.27026 261.317543 
L 257.321133 257.458053 
z
" style="fill:#ff0000;stroke:#ff0000;stroke-linecap:round;"/>
   </g>
   <g id="patch_8">
    <path clip-path="url(#pe78dd05aa7)" d="M 62.363919 206.447356 
Q 222.825623 173.105146 382.192674 139.990393 
" style="fill:none;stroke:#ff0000;stroke-linecap:round;"/>
    <path clip-path="url(#pe78dd05aa7)" d="M 377.86944 138.845994 
L 382.192674 139.990393 
L 378.683215 142.762341 
L 377.86944 138.845994 
z
" style="fill:#ff0000;stroke:#ff0000;stroke-linecap:round;"/>
   </g>
   <g id="patch_9">
    <path clip-path="url(#pe78dd05aa7)" d="M 293.510318 51.548917 
Q 231.961557 45.265878 171.52505 39.09638 
" style="fill:none;stroke:#ff0000;stroke-linecap:round;"/>
    <path clip-path="url(#pe78dd05aa7)" d="M 175.301261 41.492258 
L 171.52505 39.09638 
L 175.707479 37.512939 
L 175.301261 41.492258 
z
" style="fill:#ff0000;stroke:#ff0000;stroke-linecap:round;"/>
   </g>
   <g id="patch_10">
    <path clip-path="url(#pe78dd05aa7)" d="M 96.834834 247.072935 
Q 146.161928 146.826532 194.995405 47.583294 
" style="fill:none;stroke:#ff0000;stroke-linecap:round;"/>
    <path clip-path="url(#pe78dd05aa7)" d="M 191.43487 50.289323 
L 194.995405 47.583294 
L 195.023907 52.055339 
L 191.43487 50.289323 
z
" style="fill:#ff0000;stroke:#ff0000;stroke-linecap:round;"/>
   </g>
   <g id="patch_11">
    <path clip-path="url(#pe78dd05aa7)" d="M 263.427605 38.565949 
Q 314.115459 75.540306 363.900056 111.855779 
" style="fill:none;stroke:#0000ff;stroke-linecap:round;"/>
    <path clip-path="url(#pe78dd05aa7)" d="M 361.84711 107.882693 
L 363.900056 111.855779 
L 359.489819 111.114284 
L 361.84711 107.882693 
z
" style="fill:#0000ff;stroke:#0000ff;stroke-linecap:round;"/>
   </g>
   <g id="patch_12">
    <path clip-path="url(#pe78dd05aa7)" d="M 263.427605 38.565949 
Q 290.428006 49.418289 316.391031 59.853673 
" style="fill:none;stroke:#0000ff;stroke-linecap:round;"/>
    <path clip-path="url(#pe78dd05aa7)" d="M 313.425475 56.506215 
L 316.391031 59.853673 
L 311.933731 60.217644 
L 313.425475 56.506215 
z
" style="fill:#0000ff;stroke:#0000ff;stroke-linecap:round;"/>
   </g>
   <g id="patch_13">
    <path clip-path="url(#pe78dd05aa7)" d="M 263.427605 38.565949 
Q 175.87579 45.147829 89.438863 51.645895 
" style="fill:none;stroke:#0000ff;stroke-linecap:round;"/>
    <path clip-path="url(#pe78dd05aa7)" d="M 93.577538 53.340406 
L 89.438863 51.645895 
L 93.277677 49.351661 
L 93.577538 53.340406 
z
" style="fill:#0000ff;stroke:#0000ff;stroke-linecap:round;"/>
   </g>
   <g id="patch_14">
    <path clip-path="url(#pe78dd05aa7)" d="M 263.427605 38.565949 
Q 198.295147 39.94239 134.280474 41.295209 
" style="fill:none;stroke:#0000ff;stroke-linecap:round;"/>
    <path clip-path="url(#pe78dd05aa7)" d="M 138.321838 43.21025 
L 134.280474 41.295209 
L 138.237325 39.211143 
L 138.321838 43.21025 
z
" style="fill:#0000ff;stroke:#0000ff;stroke-linecap:round;"/>
   </g>
   <g id="patch_15">
    <path clip-path="url(#pe78dd05aa7)" d="M 263.427605 38.565949 
Q 296.83941 133.999413 329.881772 228.377645 
" style="fill:none;stroke:#0000ff;stroke-linecap:round;"/>
    <path clip-path="url(#pe78dd05aa7)" d="M 330.447669 223.941458 
L 329.881772 228.377645 
L 326.67236 225.263215 
L 330.447669 223.941458 
z
" style="fill:#0000ff;stroke:#0000ff;stroke-linecap:round;"/>
   </g>
   <g id="patch_16">
    <path clip-path="url(#pe78dd05aa7)" d="M 263.427605 38.565949 
Q 155.060075 76.171167 47.748789 113.409852 
" style="fill:none;stroke:#0000ff;stroke-linecap:round;"/>
    <path clip-path="url(#pe78dd05aa7)" d="M 52.1834 113.98797 
L 47.748789 113.409852 
L 50.87205 110.209034 
L 52.1834 113.98797 
z
" style="fill:#0000ff;stroke:#0000ff;stroke-linecap:round;"/>
   </g>
   <g id="patch_17">
    <path clip-path="url(#pe78dd05aa7)" d="M 263.427605 38.565949 
Q 158.367747 62.642292 54.397672 86.468891 
" style="fill:none;stroke:#0000ff;stroke-linecap:round;"/>
    <path clip-path="url(#pe78dd05aa7)" d="M 58.743355 87.524846 
L 54.397672 86.468891 
L 57.849846 83.625918 
L 58.743355 87.524846 
z
" style="fill:#0000ff;stroke:#0000ff;stroke-linecap:round;"/>
   </g>
   <g id="patch_18">
    <path clip-path="url(#pe78dd05aa7)" d="M 263.427605 38.565949 
Q 251.251862 33.454907 240.107009 28.776604 
" style="fill:none;stroke:#0000ff;stroke-linecap:round;"/>
    <path clip-path="url(#pe78dd05aa7)" d="M 243.021128 32.168934 
L 240.107009 28.776604 
L 244.569345 28.480706 
L 243.021128 32.168934 
z
" style="fill:#0000ff;stroke:#0000ff;stroke-linecap:round;"/>
   </g>
   <g id="patch_19">
    <path clip-path="url(#pe78dd05aa7)" d="M 263.427605 38.565949 
Q 178.210964 56.424532 94.088587 74.053793 
" style="fill:none;stroke:#0000ff;stroke-linecap:round;"/>
    <path clip-path="url(#pe78dd05aa7)" d="M 98.413764 75.190825 
L 94.088587 74.053793 
L 97.593319 71.27587 
L 98.413764 75.190825 
z
" style="fill:#0000ff;stroke:#0000ff;stroke-linecap:round;"/>
   </g>
   <g id="patch_20">
    <path clip-path="url(#pe78dd05aa7)" d="M 263.427605 38.565949 
Q 325.8807 99.907238 387.536156 160.465089 
" style="fill:none;stroke:#0000ff;stroke-linecap:round;"/>
    <path clip-path="url(#pe78dd05aa7)" d="M 386.083898 156.23532 
L 387.536156 160.465089 
L 383.280986 159.089034 
L 386.083898 156.23532 
z
" style="fill:#0000ff;stroke:#0000ff;stroke-linecap:round;"/>
   </g>
   <g id="patch_21">
    <path clip-path="url(#pe78dd05aa7)" d="M 270.092407 263.008264 
Q 318.462956 193.861108 366.192643 125.630082 
" style="fill:none;stroke:#0000ff;stroke-linecap:round;"/>
    <path clip-path="url(#pe78dd05aa7)" d="M 362.261001 127.761324 
L 366.192643 125.630082 
L 365.538651 130.05414 
L 362.261001 127.761324 
z
" style="fill:#0000ff;stroke:#0000ff;stroke-linecap:round;"/>
   </g>
   <g id="patch_22">
    <path clip-path="url(#pe78dd05aa7)" d="M 270.092407 263.008264 
Q 157.962405 192.124404 46.777442 121.837958 
" style="fill:none;stroke:#0000ff;stroke-linecap:round;"/>
    <path clip-path="url(#pe78dd05aa7)" d="M 49.089828 125.665865 
L 46.777442 121.837958 
L 51.227199 122.284793 
L 49.089828 125.665865 
z
" style="fill:#0000ff;stroke:#0000ff;stroke-linecap:round;"/>
   </g>
   <g id="patch_23">
    <path clip-path="url(#pe78dd05aa7)" d="M 270.092407 263.008264 
Q 225.408158 262.13984 181.841732 261.293141 
" style="fill:none;stroke:#0000ff;stroke-linecap:round;"/>
    <path clip-path="url(#pe78dd05aa7)" d="M 185.802115 263.370487 
L 181.841732 261.293141 
L 185.879839 259.371242 
L 185.802115 263.370487 
z
" style="fill:#0000ff;stroke:#0000ff;stroke-linecap:round;"/>
   </g>
   <g id="patch_24">
    <path clip-path="url(#pe78dd05aa7)" d="M 270.092407 263.008264 
Q 157.940874 229.518974 46.860632 196.349579 
" style="fill:none;stroke:#0000ff;stroke-linecap:round;"/>
    <path clip-path="url(#pe78dd05aa7)" d="M 50.121156 199.410459 
L 46.860632 196.349579 
L 51.26565 195.577688 
L 50.121156 199.410459 
z
" style="fill:#0000ff;stroke:#0000ff;stroke-linecap:round;"/>
   </g>
   <g id="patch_25">
    <path clip-path="url(#pe78dd05aa7)" d="M 270.092407 263.008264 
Q 284.204745 260.133703 297.221546 257.482293 
" style="fill:none;stroke:#0000ff;stroke-linecap:round;"/>
    <path clip-path="url(#pe78dd05aa7)" d="M 292.902844 256.320907 
L 297.221546 257.482293 
L 293.701216 260.240423 
L 292.902844 256.320907 
z
" style="fill:#0000ff;stroke:#0000ff;stroke-linecap:round;"/>
   </g>
   <g id="patch_26">
    <path clip-path="url(#pe78dd05aa7)" d="M 270.092407 263.008264 
Q 297.584879 251.926439 324.04039 241.262598 
" style="fill:none;stroke:#0000ff;stroke-linecap:round;"/>
    <path clip-path="url(#pe78dd05aa7)" d="M 319.582731 240.903052 
L 324.04039 241.262598 
L 321.078157 244.612998 
L 319.582731 240.903052 
z
" style="fill:#0000ff;stroke:#0000ff;stroke-linecap:round;"/>
   </g>
   <g id="patch_27">
    <path clip-path="url(#pe78dd05aa7)" d="M 270.092407 263.008264 
Q 180.356219 172.607573 91.407679 83.000362 
" style="fill:none;stroke:#0000ff;stroke-linecap:round;"/>
    <path clip-path="url(#pe78dd05aa7)" d="M 92.806232 87.248191 
L 91.407679 83.000362 
L 95.645074 84.430217 
L 92.806232 87.248191 
z
" style="fill:#0000ff;stroke:#0000ff;stroke-linecap:round;"/>
   </g>
   <g id="patch_28">
    <path clip-path="url(#pe78dd05aa7)" d="M 270.092407 263.008264 
Q 328.871815 217.801157 386.764986 173.275652 
" style="fill:none;stroke:#0000ff;stroke-linecap:round;"/>
    <path clip-path="url(#pe78dd05aa7)" d="M 382.374997 174.12888 
L 386.764986 173.275652 
L 384.813575 177.29958 
L 382.374997 174.12888 
z
" style="fill:#0000ff;stroke:#0000ff;stroke-linecap:round;"/>
   </g>
   <g id="patch_29">
    <path clip-path="url(#pe78dd05aa7)" d="M 199.312221 38.81032 
Q 281.616459 76.41412 362.903776 113.553301 
" style="fill:none;stroke:#0000ff;stroke-linecap:round;"/>
    <path clip-path="url(#pe78dd05aa7)" d="M 360.096663 110.071905 
L 362.903776 113.553301 
L 358.434391 113.710154 
L 360.096663 110.071905 
z
" style="fill:#0000ff;stroke:#0000ff;stroke-linecap:round;"/>
   </g>
   <g id="patch_30">
    <path clip-path="url(#pe78dd05aa7)" d="M 199.312221 38.81032 
Q 258.141378 50.324523 315.873319 61.623976 
" style="fill:none;stroke:#0000ff;stroke-linecap:round;"/>
    <path clip-path="url(#pe78dd05aa7)" d="M 312.331957 58.892904 
L 315.873319 61.623976 
L 311.563644 62.818422 
L 312.331957 58.892904 
z
" style="fill:#0000ff;stroke:#0000ff;stroke-linecap:round;"/>
   </g>
   <g id="patch_31">
    <path clip-path="url(#pe78dd05aa7)" d="M 199.312221 38.81032 
Q 143.801393 45.106708 89.401475 51.27709 
" style="fill:none;stroke:#0000ff;stroke-linecap:round;"/>
    <path clip-path="url(#pe78dd05aa7)" d="M 93.601396 52.813533 
L 89.401475 51.27709 
L 93.150582 48.839018 
L 93.601396 52.813533 
z
" style="fill:#0000ff;stroke:#0000ff;stroke-linecap:round;"/>
   </g>
   <g id="patch_32">
    <path clip-path="url(#pe78dd05aa7)" d="M 199.312221 38.81032 
Q 166.232992 40.000445 134.271075 41.15037 
" style="fill:none;stroke:#0000ff;stroke-linecap:round;"/>
    <path clip-path="url(#pe78dd05aa7)" d="M 138.340398 43.005258 
L 134.271075 41.15037 
L 138.196579 39.007845 
L 138.340398 43.005258 
z
" style="fill:#0000ff;stroke:#0000ff;stroke-linecap:round;"/>
   </g>
   <g id="patch_33">
    <path clip-path="url(#pe78dd05aa7)" d="M 199.312221 38.81032 
Q 122.810782 75.826479 47.315755 112.355673 
" style="fill:none;stroke:#0000ff;stroke-linecap:round;"/>
    <path clip-path="url(#pe78dd05aa7)" d="M 51.787514 112.413779 
L 47.315755 112.355673 
L 50.045296 108.81313 
L 51.787514 112.413779 
z
" style="fill:#0000ff;stroke:#0000ff;stroke-linecap:round;"/>
   </g>
   <g id="patch_34">
    <path clip-path="url(#pe78dd05aa7)" d="M 199.312221 38.81032 
Q 146.033097 56.098657 93.817422 73.041919 
" style="fill:none;stroke:#0000ff;stroke-linecap:round;"/>
    <path clip-path="url(#pe78dd05aa7)" d="M 98.23942 73.709698 
L 93.817422 73.041919 
L 97.004844 69.904988 
L 98.23942 73.709698 
z
" style="fill:#0000ff;stroke:#0000ff;stroke-linecap:round;"/>
   </g>
   <g id="patch_35">
    <path clip-path="url(#pe78dd05aa7)" d="M 199.312221 38.81032 
Q 293.294898 100.682266 386.343739 161.939436 
" style="fill:none;stroke:#0000ff;stroke-linecap:round;"/>
    <path clip-path="url(#pe78dd05aa7)" d="M 384.102489 158.069449 
L 386.343739 161.939436 
L 381.903 161.410444 
L 384.102489 158.069449 
z
" style="fill:#0000ff;stroke:#0000ff;stroke-linecap:round;"/>
   </g>
   <g id="patch_36">
    <path clip-path="url(#pe78dd05aa7)" d="M 391.764093 138.001555 
Q 384.811805 130.903535 378.641845 124.60424 
" style="fill:none;stroke:#0000ff;stroke-linecap:round;"/>
    <path clip-path="url(#pe78dd05aa7)" d="M 380.011979 128.861321 
L 378.641845 124.60424 
L 382.869589 126.062381 
L 380.011979 128.861321 
z
" style="fill:#0000ff;stroke:#0000ff;stroke-linecap:round;"/>
   </g>
   <g id="patch_37">
    <path clip-path="url(#pe78dd05aa7)" d="M 391.764093 138.001555 
Q 370.327717 115.146912 349.656203 93.107736 
" style="fill:none;stroke:#0000ff;stroke-linecap:round;"/>
    <path clip-path="url(#pe78dd05aa7)" d="M 350.933906 97.393465 
L 349.656203 93.107736 
L 353.851408 94.657011 
L 350.933906 97.393465 
z
" style="fill:#0000ff;stroke:#0000ff;stroke-linecap:round;"/>
   </g>
   <g id="patch_38">
    <path clip-path="url(#pe78dd05aa7)" d="M 391.764093 138.001555 
Q 383.864265 116.569089 376.351105 96.185664 
" style="fill:none;stroke:#0000ff;stroke-linecap:round;"/>
    <path clip-path="url(#pe78dd05aa7)" d="M 375.857908 100.630522 
L 376.351105 96.185664 
L 379.611072 99.247136 
L 375.857908 100.630522 
z
" style="fill:#0000ff;stroke:#0000ff;stroke-linecap:round;"/>
   </g>
   <g id="patch_39">
    <path clip-path="url(#pe78dd05aa7)" d="M 391.764093 138.001555 
Q 221.374754 150.942214 52.100238 163.798206 
" style="fill:none;stroke:#0000ff;stroke-linecap:round;"/>
    <path clip-path="url(#pe78dd05aa7)" d="M 56.240211 165.489544 
L 52.100238 163.798206 
L 55.937293 161.501031 
L 56.240211 165.489544 
z
" style="fill:#0000ff;stroke:#0000ff;stroke-linecap:round;"/>
   </g>
   <g id="patch_40">
    <path clip-path="url(#pe78dd05aa7)" d="M 391.764093 138.001555 
Q 361.493757 103.985783 331.96667 70.805224 
" style="fill:none;stroke:#0000ff;stroke-linecap:round;"/>
    <path clip-path="url(#pe78dd05aa7)" d="M 333.131723 75.122938 
L 331.96667 70.805224 
L 336.119873 72.46381 
L 333.131723 75.122938 
z
" style="fill:#0000ff;stroke:#0000ff;stroke-linecap:round;"/>
   </g>
   <g id="patch_41">
    <path clip-path="url(#pe78dd05aa7)" d="M 391.764093 138.001555 
Q 364.63544 184.072437 338.07409 229.179904 
" style="fill:none;stroke:#0000ff;stroke-linecap:round;"/>
    <path clip-path="url(#pe78dd05aa7)" d="M 341.827142 226.74791 
L 338.07409 229.179904 
L 338.380325 224.718265 
L 341.827142 226.74791 
z
" style="fill:#0000ff;stroke:#0000ff;stroke-linecap:round;"/>
   </g>
   <g id="patch_42">
    <path clip-path="url(#pe78dd05aa7)" d="M 391.764093 138.001555 
Q 239.898807 96.335469 89.111711 54.965198 
" style="fill:none;stroke:#0000ff;stroke-linecap:round;"/>
    <path clip-path="url(#pe78dd05aa7)" d="M 92.439992 57.952261 
L 89.111711 54.965198 
L 93.49833 54.094811 
L 92.439992 57.952261 
z
" style="fill:#0000ff;stroke:#0000ff;stroke-linecap:round;"/>
   </g>
   <g id="patch_43">
    <path clip-path="url(#pe78dd05aa7)" d="M 391.764093 138.001555 
Q 314.968772 83.987531 239.087937 30.616712 
" style="fill:none;stroke:#0000ff;stroke-linecap:round;"/>
    <path clip-path="url(#pe78dd05aa7)" d="M 241.209107 34.553797 
L 239.087937 30.616712 
L 243.510307 31.282028 
L 241.209107 34.553797 
z
" style="fill:#0000ff;stroke:#0000ff;stroke-linecap:round;"/>
   </g>
   <g id="patch_44">
    <path clip-path="url(#pe78dd05aa7)" d="M 391.764093 138.001555 
Q 379.246902 175.620028 367.082699 212.177652 
" style="fill:none;stroke:#0000ff;stroke-linecap:round;"/>
    <path clip-path="url(#pe78dd05aa7)" d="M 370.243289 209.013687 
L 367.082699 212.177652 
L 366.447881 207.750801 
L 370.243289 209.013687 
z
" style="fill:#0000ff;stroke:#0000ff;stroke-linecap:round;"/>
   </g>
   <g id="patch_45">
    <path clip-path="url(#pe78dd05aa7)" d="M 391.764093 138.001555 
Q 242.386137 107.886372 94.104164 77.992144 
" style="fill:none;stroke:#0000ff;stroke-linecap:round;"/>
    <path clip-path="url(#pe78dd05aa7)" d="M 97.630017 80.743209 
L 94.104164 77.992144 
L 98.420528 76.822101 
L 97.630017 80.743209 
z
" style="fill:#0000ff;stroke:#0000ff;stroke-linecap:round;"/>
   </g>
   <g id="patch_46">
    <path clip-path="url(#pe78dd05aa7)" d="M 391.764093 138.001555 
Q 219.460768 127.569602 48.273434 117.205215 
" style="fill:none;stroke:#0000ff;stroke-linecap:round;"/>
    <path clip-path="url(#pe78dd05aa7)" d="M 52.145256 119.443293 
L 48.273434 117.205215 
L 52.38699 115.450604 
L 52.145256 119.443293 
z
" style="fill:#0000ff;stroke:#0000ff;stroke-linecap:round;"/>
   </g>
   <g id="patch_47">
    <path clip-path="url(#pe78dd05aa7)" d="M 391.764093 138.001555 
Q 392.734152 148.348968 393.599853 157.583227 
" style="fill:none;stroke:#0000ff;stroke-linecap:round;"/>
    <path clip-path="url(#pe78dd05aa7)" d="M 395.217764 153.414011 
L 393.599853 157.583227 
L 391.235226 153.787369 
L 395.217764 153.414011 
z
" style="fill:#0000ff;stroke:#0000ff;stroke-linecap:round;"/>
   </g>
   <g id="patch_48">
    <path clip-path="url(#pe78dd05aa7)" d="M 161.798984 38.103521 
Q 262.749844 76.327275 362.65511 114.155129 
" style="fill:none;stroke:#0000ff;stroke-linecap:round;"/>
    <path clip-path="url(#pe78dd05aa7)" d="M 359.622494 110.868301 
L 362.65511 114.155129 
L 358.206078 114.609126 
L 359.622494 110.868301 
z
" style="fill:#0000ff;stroke:#0000ff;stroke-linecap:round;"/>
   </g>
   <g id="patch_49">
    <path clip-path="url(#pe78dd05aa7)" d="M 161.798984 38.103521 
Q 257.425853 103.488435 352.129802 168.242302 
" style="fill:none;stroke:#0000ff;stroke-linecap:round;"/>
    <path clip-path="url(#pe78dd05aa7)" d="M 349.956715 164.333633 
L 352.129802 168.242302 
L 347.699015 167.63557 
L 349.956715 164.333633 
z
" style="fill:#0000ff;stroke:#0000ff;stroke-linecap:round;"/>
   </g>
   <g id="patch_50">
    <path clip-path="url(#pe78dd05aa7)" d="M 161.798984 38.103521 
Q 102.347241 112.445927 43.593769 185.915168 
" style="fill:none;stroke:#0000ff;stroke-linecap:round;"/>
    <path clip-path="url(#pe78dd05aa7)" d="M 47.653946 184.040344 
L 43.593769 185.915168 
L 44.530016 181.542132 
L 47.653946 184.040344 
z
" style="fill:#0000ff;stroke:#0000ff;stroke-linecap:round;"/>
   </g>
   <g id="patch_51">
    <path clip-path="url(#pe78dd05aa7)" d="M 161.798984 38.103521 
Q 107.306534 61.660521 53.840329 84.773876 
" style="fill:none;stroke:#0000ff;stroke-linecap:round;"/>
    <path clip-path="url(#pe78dd05aa7)" d="M 58.305552 85.02245 
L 53.840329 84.773876 
L 56.718322 81.350842 
L 58.305552 85.02245 
z
" style="fill:#0000ff;stroke:#0000ff;stroke-linecap:round;"/>
   </g>
   <g id="patch_52">
    <path clip-path="url(#pe78dd05aa7)" d="M 161.798984 38.103521 
Q 124.911345 127.904009 88.448519 216.670315 
" style="fill:none;stroke:#0000ff;stroke-linecap:round;"/>
    <path clip-path="url(#pe78dd05aa7)" d="M 91.818383 213.730243 
L 88.448519 216.670315 
L 88.11838 212.210381 
L 91.818383 213.730243 
z
" style="fill:#0000ff;stroke:#0000ff;stroke-linecap:round;"/>
   </g>
   <g id="patch_53">
    <path clip-path="url(#pe78dd05aa7)" d="M 161.798984 38.103521 
Q 127.043931 55.173173 93.292409 71.749948 
" style="fill:none;stroke:#0000ff;stroke-linecap:round;"/>
    <path clip-path="url(#pe78dd05aa7)" d="M 97.764431 71.781753 
L 93.292409 71.749948 
L 96.001066 68.191413 
L 97.764431 71.781753 
z
" style="fill:#0000ff;stroke:#0000ff;stroke-linecap:round;"/>
   </g>
   <g id="patch_54">
    <path clip-path="url(#pe78dd05aa7)" d="M 161.798984 38.103521 
Q 103.80801 75.03366 46.760081 111.363243 
" style="fill:none;stroke:#0000ff;stroke-linecap:round;"/>
    <path clip-path="url(#pe78dd05aa7)" d="M 51.208326 110.901602 
L 46.760081 111.363243 
L 49.059715 107.527662 
L 51.208326 110.901602 
z
" style="fill:#0000ff;stroke:#0000ff;stroke-linecap:round;"/>
   </g>
   <g id="patch_55">
    <path clip-path="url(#pe78dd05aa7)" d="M 161.798984 38.103521 
Q 274.368629 100.607571 385.960809 162.568886 
" style="fill:none;stroke:#0000ff;stroke-linecap:round;"/>
    <path clip-path="url(#pe78dd05aa7)" d="M 383.434598 158.878594 
L 385.960809 162.568886 
L 381.492848 162.375679 
L 383.434598 158.878594 
z
" style="fill:#0000ff;stroke:#0000ff;stroke-linecap:round;"/>
   </g>
   <g id="PathCollection_1">
    <defs>
     <path d="M 0 8.660254 
C 2.296726 8.660254 4.499694 7.747755 6.123724 6.123724 
C 7.747755 4.499694 8.660254 2.296726 8.660254 0 
C 8.660254 -2.296726 7.747755 -4.499694 6.123724 -6.123724 
C 4.499694 -7.747755 2.296726 -8.660254 0 -8.660254 
C -2.296726 -8.660254 -4.499694 -7.747755 -6.123724 -6.123724 
C -7.747755 -4.499694 -8.660254 -2.296726 -8.660254 0 
C -8.660254 2.296726 -7.747755 4.499694 -6.123724 6.123724 
C -4.499694 7.747755 -2.296726 8.660254 0 8.660254 
z
" id="C0_0_6713754311"/>
    </defs>
    <g clip-path="url(#pe78dd05aa7)">
     <use style="fill:#008000;stroke:#008000;" x="47.613482" xlink:href="#C0_0_6713754311" y="139.293575"/>
    </g>
    <g clip-path="url(#pe78dd05aa7)">
     <use style="fill:#008000;stroke:#008000;" x="373.38993" xlink:href="#C0_0_6713754311" y="197.702864"/>
    </g>
    <g clip-path="url(#pe78dd05aa7)">
     <use style="fill:#008000;stroke:#008000;" x="62.363919" xlink:href="#C0_0_6713754311" y="206.447356"/>
    </g>
    <g clip-path="url(#pe78dd05aa7)">
     <use style="fill:#008000;stroke:#008000;" x="293.510318" xlink:href="#C0_0_6713754311" y="51.548917"/>
    </g>
    <g clip-path="url(#pe78dd05aa7)">
     <use style="fill:#008000;stroke:#008000;" x="236.828075" xlink:href="#C0_0_6713754311" y="256.091565"/>
    </g>
    <g clip-path="url(#pe78dd05aa7)">
     <use style="fill:#008000;stroke:#008000;" x="136.063179" xlink:href="#C0_0_6713754311" y="253.461192"/>
    </g>
    <g clip-path="url(#pe78dd05aa7)">
     <use style="fill:#008000;stroke:#008000;" x="96.834834" xlink:href="#C0_0_6713754311" y="247.072935"/>
    </g>
    <g clip-path="url(#pe78dd05aa7)">
     <use style="fill:#008000;stroke:#008000;" x="211.250448" xlink:href="#C0_0_6713754311" y="268.923415"/>
    </g>
    <g clip-path="url(#pe78dd05aa7)">
     <use style="fill:#ffff00;stroke:#ffff00;" x="263.427605" xlink:href="#C0_0_6713754311" y="38.565949"/>
    </g>
    <g clip-path="url(#pe78dd05aa7)">
     <use style="fill:#008000;stroke:#008000;" x="371.798048" xlink:href="#C0_0_6713754311" y="117.616986"/>
    </g>
    <g clip-path="url(#pe78dd05aa7)">
     <use style="fill:#008000;stroke:#008000;" x="325.467373" xlink:href="#C0_0_6713754311" y="63.501751"/>
    </g>
    <g clip-path="url(#pe78dd05aa7)">
     <use style="fill:#008000;stroke:#008000;" x="79.685847" xlink:href="#C0_0_6713754311" y="52.379098"/>
    </g>
    <g clip-path="url(#pe78dd05aa7)">
     <use style="fill:#008000;stroke:#008000;" x="124.500974" xlink:href="#C0_0_6713754311" y="41.501879"/>
    </g>
    <g clip-path="url(#pe78dd05aa7)">
     <use style="fill:#008000;stroke:#008000;" x="333.112577" xlink:href="#C0_0_6713754311" y="237.605728"/>
    </g>
    <g clip-path="url(#pe78dd05aa7)">
     <use style="fill:#008000;stroke:#008000;" x="38.514316" xlink:href="#C0_0_6713754311" y="116.614358"/>
    </g>
    <g clip-path="url(#pe78dd05aa7)">
     <use style="fill:#008000;stroke:#008000;" x="44.867082" xlink:href="#C0_0_6713754311" y="88.652996"/>
    </g>
    <g clip-path="url(#pe78dd05aa7)">
     <use style="fill:#008000;stroke:#008000;" x="231.090535" xlink:href="#C0_0_6713754311" y="24.991736"/>
    </g>
    <g clip-path="url(#pe78dd05aa7)">
     <use style="fill:#008000;stroke:#008000;" x="84.51784" xlink:href="#C0_0_6713754311" y="76.059504"/>
    </g>
    <g clip-path="url(#pe78dd05aa7)">
     <use style="fill:#008000;stroke:#008000;" x="394.512397" xlink:href="#C0_0_6713754311" y="167.317136"/>
    </g>
    <g clip-path="url(#pe78dd05aa7)">
     <use style="fill:#ffff00;stroke:#ffff00;" x="270.092407" xlink:href="#C0_0_6713754311" y="263.008264"/>
    </g>
    <g clip-path="url(#pe78dd05aa7)">
     <use style="fill:#008000;stroke:#008000;" x="172.063186" xlink:href="#C0_0_6713754311" y="261.103098"/>
    </g>
    <g clip-path="url(#pe78dd05aa7)">
     <use style="fill:#008000;stroke:#008000;" x="37.487603" xlink:href="#C0_0_6713754311" y="193.550723"/>
    </g>
    <g clip-path="url(#pe78dd05aa7)">
     <use style="fill:#008000;stroke:#008000;" x="306.799273" xlink:href="#C0_0_6713754311" y="255.531393"/>
    </g>
    <g clip-path="url(#pe78dd05aa7)">
     <use style="fill:#ffff00;stroke:#ffff00;" x="199.312221" xlink:href="#C0_0_6713754311" y="38.81032"/>
    </g>
    <g clip-path="url(#pe78dd05aa7)">
     <use style="fill:#ffff00;stroke:#ffff00;" x="391.764093" xlink:href="#C0_0_6713754311" y="138.001555"/>
    </g>
    <g clip-path="url(#pe78dd05aa7)">
     <use style="fill:#008000;stroke:#008000;" x="342.967485" xlink:href="#C0_0_6713754311" y="85.976481"/>
    </g>
    <g clip-path="url(#pe78dd05aa7)">
     <use style="fill:#008000;stroke:#008000;" x="372.969236" xlink:href="#C0_0_6713754311" y="87.010555"/>
    </g>
    <g clip-path="url(#pe78dd05aa7)">
     <use style="fill:#008000;stroke:#008000;" x="42.350852" xlink:href="#C0_0_6713754311" y="164.538648"/>
    </g>
    <g clip-path="url(#pe78dd05aa7)">
     <use style="fill:#008000;stroke:#008000;" x="363.995005" xlink:href="#C0_0_6713754311" y="221.457234"/>
    </g>
    <g clip-path="url(#pe78dd05aa7)">
     <use style="fill:#ffff00;stroke:#ffff00;" x="161.798984" xlink:href="#C0_0_6713754311" y="38.103521"/>
    </g>
    <g clip-path="url(#pe78dd05aa7)">
     <use style="fill:#008000;stroke:#008000;" x="360.200328" xlink:href="#C0_0_6713754311" y="173.760528"/>
    </g>
    <g clip-path="url(#pe78dd05aa7)">
     <use style="fill:#008000;stroke:#008000;" x="84.732234" xlink:href="#C0_0_6713754311" y="225.717362"/>
    </g>
   </g>
   <g id="text_1">
    <g clip-path="url(#pe78dd05aa7)">
     <!-- pain_s -->
     <defs>
      <path d="M 18.109375 8.203125 
L 18.109375 -20.796875 
L 9.078125 -20.796875 
L 9.078125 54.6875 
L 18.109375 54.6875 
L 18.109375 46.390625 
Q 20.953125 51.265625 25.265625 53.625 
Q 29.59375 56 35.59375 56 
Q 45.5625 56 51.78125 48.09375 
Q 58.015625 40.1875 58.015625 27.296875 
Q 58.015625 14.40625 51.78125 6.484375 
Q 45.5625 -1.421875 35.59375 -1.421875 
Q 29.59375 -1.421875 25.265625 0.953125 
Q 20.953125 3.328125 18.109375 8.203125 
z
M 48.6875 27.296875 
Q 48.6875 37.203125 44.609375 42.84375 
Q 40.53125 48.484375 33.40625 48.484375 
Q 26.265625 48.484375 22.1875 42.84375 
Q 18.109375 37.203125 18.109375 27.296875 
Q 18.109375 17.390625 22.1875 11.75 
Q 26.265625 6.109375 33.40625 6.109375 
Q 40.53125 6.109375 44.609375 11.75 
Q 48.6875 17.390625 48.6875 27.296875 
z
" id="DejaVuSans-112"/>
      <path d="M 34.28125 27.484375 
Q 23.390625 27.484375 19.1875 25 
Q 14.984375 22.515625 14.984375 16.5 
Q 14.984375 11.71875 18.140625 8.90625 
Q 21.296875 6.109375 26.703125 6.109375 
Q 34.1875 6.109375 38.703125 11.40625 
Q 43.21875 16.703125 43.21875 25.484375 
L 43.21875 27.484375 
z
M 52.203125 31.203125 
L 52.203125 0 
L 43.21875 0 
L 43.21875 8.296875 
Q 40.140625 3.328125 35.546875 0.953125 
Q 30.953125 -1.421875 24.3125 -1.421875 
Q 15.921875 -1.421875 10.953125 3.296875 
Q 6 8.015625 6 15.921875 
Q 6 25.140625 12.171875 29.828125 
Q 18.359375 34.515625 30.609375 34.515625 
L 43.21875 34.515625 
L 43.21875 35.40625 
Q 43.21875 41.609375 39.140625 45 
Q 35.0625 48.390625 27.6875 48.390625 
Q 23 48.390625 18.546875 47.265625 
Q 14.109375 46.140625 10.015625 43.890625 
L 10.015625 52.203125 
Q 14.9375 54.109375 19.578125 55.046875 
Q 24.21875 56 28.609375 56 
Q 40.484375 56 46.34375 49.84375 
Q 52.203125 43.703125 52.203125 31.203125 
z
" id="DejaVuSans-97"/>
      <path d="M 9.421875 54.6875 
L 18.40625 54.6875 
L 18.40625 0 
L 9.421875 0 
z
M 9.421875 75.984375 
L 18.40625 75.984375 
L 18.40625 64.59375 
L 9.421875 64.59375 
z
" id="DejaVuSans-105"/>
      <path d="M 54.890625 33.015625 
L 54.890625 0 
L 45.90625 0 
L 45.90625 32.71875 
Q 45.90625 40.484375 42.875 44.328125 
Q 39.84375 48.1875 33.796875 48.1875 
Q 26.515625 48.1875 22.3125 43.546875 
Q 18.109375 38.921875 18.109375 30.90625 
L 18.109375 0 
L 9.078125 0 
L 9.078125 54.6875 
L 18.109375 54.6875 
L 18.109375 46.1875 
Q 21.34375 51.125 25.703125 53.5625 
Q 30.078125 56 35.796875 56 
Q 45.21875 56 50.046875 50.171875 
Q 54.890625 44.34375 54.890625 33.015625 
z
" id="DejaVuSans-110"/>
      <path d="M 50.984375 -16.609375 
L 50.984375 -23.578125 
L -0.984375 -23.578125 
L -0.984375 -16.609375 
z
" id="DejaVuSans-95"/>
      <path d="M 44.28125 53.078125 
L 44.28125 44.578125 
Q 40.484375 46.53125 36.375 47.5 
Q 32.28125 48.484375 27.875 48.484375 
Q 21.1875 48.484375 17.84375 46.4375 
Q 14.5 44.390625 14.5 40.28125 
Q 14.5 37.15625 16.890625 35.375 
Q 19.28125 33.59375 26.515625 31.984375 
L 29.59375 31.296875 
Q 39.15625 29.25 43.1875 25.515625 
Q 47.21875 21.78125 47.21875 15.09375 
Q 47.21875 7.46875 41.1875 3.015625 
Q 35.15625 -1.421875 24.609375 -1.421875 
Q 20.21875 -1.421875 15.453125 -0.5625 
Q 10.6875 0.296875 5.421875 2 
L 5.421875 11.28125 
Q 10.40625 8.6875 15.234375 7.390625 
Q 20.0625 6.109375 24.8125 6.109375 
Q 31.15625 6.109375 34.5625 8.28125 
Q 37.984375 10.453125 37.984375 14.40625 
Q 37.984375 18.0625 35.515625 20.015625 
Q 33.0625 21.96875 24.703125 23.78125 
L 21.578125 24.515625 
Q 13.234375 26.265625 9.515625 29.90625 
Q 5.8125 33.546875 5.8125 39.890625 
Q 5.8125 47.609375 11.28125 51.796875 
Q 16.75 56 26.8125 56 
Q 31.78125 56 36.171875 55.265625 
Q 40.578125 54.546875 44.28125 53.078125 
z
" id="DejaVuSans-115"/>
     </defs>
     <g transform="translate(28.532545 133.705049)scale(0.12 -0.12)">
      <use xlink:href="#DejaVuSans-112"/>
      <use x="63.476562" xlink:href="#DejaVuSans-97"/>
      <use x="124.755859" xlink:href="#DejaVuSans-105"/>
      <use x="152.539062" xlink:href="#DejaVuSans-110"/>
      <use x="215.917969" xlink:href="#DejaVuSans-95"/>
      <use x="265.917969" xlink:href="#DejaVuSans-115"/>
     </g>
    </g>
   </g>
   <g id="text_2">
    <g clip-path="url(#pe78dd05aa7)">
     <!-- taste_s -->
     <defs>
      <path d="M 18.3125 70.21875 
L 18.3125 54.6875 
L 36.8125 54.6875 
L 36.8125 47.703125 
L 18.3125 47.703125 
L 18.3125 18.015625 
Q 18.3125 11.328125 20.140625 9.421875 
Q 21.96875 7.515625 27.59375 7.515625 
L 36.8125 7.515625 
L 36.8125 0 
L 27.59375 0 
Q 17.1875 0 13.234375 3.875 
Q 9.28125 7.765625 9.28125 18.015625 
L 9.28125 47.703125 
L 2.6875 47.703125 
L 2.6875 54.6875 
L 9.28125 54.6875 
L 9.28125 70.21875 
z
" id="DejaVuSans-116"/>
      <path d="M 56.203125 29.59375 
L 56.203125 25.203125 
L 14.890625 25.203125 
Q 15.484375 15.921875 20.484375 11.0625 
Q 25.484375 6.203125 34.421875 6.203125 
Q 39.59375 6.203125 44.453125 7.46875 
Q 49.3125 8.734375 54.109375 11.28125 
L 54.109375 2.78125 
Q 49.265625 0.734375 44.1875 -0.34375 
Q 39.109375 -1.421875 33.890625 -1.421875 
Q 20.796875 -1.421875 13.15625 6.1875 
Q 5.515625 13.8125 5.515625 26.8125 
Q 5.515625 40.234375 12.765625 48.109375 
Q 20.015625 56 32.328125 56 
Q 43.359375 56 49.78125 48.890625 
Q 56.203125 41.796875 56.203125 29.59375 
z
M 47.21875 32.234375 
Q 47.125 39.59375 43.09375 43.984375 
Q 39.0625 48.390625 32.421875 48.390625 
Q 24.90625 48.390625 20.390625 44.140625 
Q 15.875 39.890625 15.1875 32.171875 
z
" id="DejaVuSans-101"/>
     </defs>
     <g transform="translate(352.065555 191.947463)scale(0.12 -0.12)">
      <use xlink:href="#DejaVuSans-116"/>
      <use x="39.208984" xlink:href="#DejaVuSans-97"/>
      <use x="100.488281" xlink:href="#DejaVuSans-115"/>
      <use x="152.587891" xlink:href="#DejaVuSans-116"/>
      <use x="191.796875" xlink:href="#DejaVuSans-101"/>
      <use x="253.320312" xlink:href="#DejaVuSans-95"/>
      <use x="303.320312" xlink:href="#DejaVuSans-115"/>
     </g>
    </g>
   </g>
   <g id="text_3">
    <g clip-path="url(#pe78dd05aa7)">
     <!-- mucus_s -->
     <defs>
      <path d="M 52 44.1875 
Q 55.375 50.25 60.0625 53.125 
Q 64.75 56 71.09375 56 
Q 79.640625 56 84.28125 50.015625 
Q 88.921875 44.046875 88.921875 33.015625 
L 88.921875 0 
L 79.890625 0 
L 79.890625 32.71875 
Q 79.890625 40.578125 77.09375 44.375 
Q 74.3125 48.1875 68.609375 48.1875 
Q 61.625 48.1875 57.5625 43.546875 
Q 53.515625 38.921875 53.515625 30.90625 
L 53.515625 0 
L 44.484375 0 
L 44.484375 32.71875 
Q 44.484375 40.625 41.703125 44.40625 
Q 38.921875 48.1875 33.109375 48.1875 
Q 26.21875 48.1875 22.15625 43.53125 
Q 18.109375 38.875 18.109375 30.90625 
L 18.109375 0 
L 9.078125 0 
L 9.078125 54.6875 
L 18.109375 54.6875 
L 18.109375 46.1875 
Q 21.1875 51.21875 25.484375 53.609375 
Q 29.78125 56 35.6875 56 
Q 41.65625 56 45.828125 52.96875 
Q 50 49.953125 52 44.1875 
z
" id="DejaVuSans-109"/>
      <path d="M 8.5 21.578125 
L 8.5 54.6875 
L 17.484375 54.6875 
L 17.484375 21.921875 
Q 17.484375 14.15625 20.5 10.265625 
Q 23.53125 6.390625 29.59375 6.390625 
Q 36.859375 6.390625 41.078125 11.03125 
Q 45.3125 15.671875 45.3125 23.6875 
L 45.3125 54.6875 
L 54.296875 54.6875 
L 54.296875 0 
L 45.3125 0 
L 45.3125 8.40625 
Q 42.046875 3.421875 37.71875 1 
Q 33.40625 -1.421875 27.6875 -1.421875 
Q 18.265625 -1.421875 13.375 4.4375 
Q 8.5 10.296875 8.5 21.578125 
z
M 31.109375 56 
z
" id="DejaVuSans-117"/>
      <path d="M 48.78125 52.59375 
L 48.78125 44.1875 
Q 44.96875 46.296875 41.140625 47.34375 
Q 37.3125 48.390625 33.40625 48.390625 
Q 24.65625 48.390625 19.8125 42.84375 
Q 14.984375 37.3125 14.984375 27.296875 
Q 14.984375 17.28125 19.8125 11.734375 
Q 24.65625 6.203125 33.40625 6.203125 
Q 37.3125 6.203125 41.140625 7.25 
Q 44.96875 8.296875 48.78125 10.40625 
L 48.78125 2.09375 
Q 45.015625 0.34375 40.984375 -0.53125 
Q 36.96875 -1.421875 32.421875 -1.421875 
Q 20.0625 -1.421875 12.78125 6.34375 
Q 5.515625 14.109375 5.515625 27.296875 
Q 5.515625 40.671875 12.859375 48.328125 
Q 20.21875 56 33.015625 56 
Q 37.15625 56 41.109375 55.140625 
Q 45.0625 54.296875 48.78125 52.59375 
z
" id="DejaVuSans-99"/>
     </defs>
     <g transform="translate(36.364231 200.691956)scale(0.12 -0.12)">
      <use xlink:href="#DejaVuSans-109"/>
      <use x="97.412109" xlink:href="#DejaVuSans-117"/>
      <use x="160.791016" xlink:href="#DejaVuSans-99"/>
      <use x="215.771484" xlink:href="#DejaVuSans-117"/>
      <use x="279.150391" xlink:href="#DejaVuSans-115"/>
      <use x="331.25" xlink:href="#DejaVuSans-95"/>
      <use x="381.25" xlink:href="#DejaVuSans-115"/>
     </g>
    </g>
   </g>
   <g id="text_4">
    <g clip-path="url(#pe78dd05aa7)">
     <!-- mucositis_s -->
     <defs>
      <path d="M 30.609375 48.390625 
Q 23.390625 48.390625 19.1875 42.75 
Q 14.984375 37.109375 14.984375 27.296875 
Q 14.984375 17.484375 19.15625 11.84375 
Q 23.34375 6.203125 30.609375 6.203125 
Q 37.796875 6.203125 41.984375 11.859375 
Q 46.1875 17.53125 46.1875 27.296875 
Q 46.1875 37.015625 41.984375 42.703125 
Q 37.796875 48.390625 30.609375 48.390625 
z
M 30.609375 56 
Q 42.328125 56 49.015625 48.375 
Q 55.71875 40.765625 55.71875 27.296875 
Q 55.71875 13.875 49.015625 6.21875 
Q 42.328125 -1.421875 30.609375 -1.421875 
Q 18.84375 -1.421875 12.171875 6.21875 
Q 5.515625 13.875 5.515625 27.296875 
Q 5.515625 40.765625 12.171875 48.375 
Q 18.84375 56 30.609375 56 
z
" id="DejaVuSans-111"/>
     </defs>
     <g transform="translate(258.830318 45.960391)scale(0.12 -0.12)">
      <use xlink:href="#DejaVuSans-109"/>
      <use x="97.412109" xlink:href="#DejaVuSans-117"/>
      <use x="160.791016" xlink:href="#DejaVuSans-99"/>
      <use x="215.771484" xlink:href="#DejaVuSans-111"/>
      <use x="276.953125" xlink:href="#DejaVuSans-115"/>
      <use x="329.052734" xlink:href="#DejaVuSans-105"/>
      <use x="356.835938" xlink:href="#DejaVuSans-116"/>
      <use x="396.044922" xlink:href="#DejaVuSans-105"/>
      <use x="423.828125" xlink:href="#DejaVuSans-115"/>
      <use x="475.927734" xlink:href="#DejaVuSans-95"/>
      <use x="525.927734" xlink:href="#DejaVuSans-115"/>
     </g>
    </g>
   </g>
   <g id="text_5">
    <g clip-path="url(#pe78dd05aa7)">
     <!-- sad_l -->
     <defs>
      <path d="M 45.40625 46.390625 
L 45.40625 75.984375 
L 54.390625 75.984375 
L 54.390625 0 
L 45.40625 0 
L 45.40625 8.203125 
Q 42.578125 3.328125 38.25 0.953125 
Q 33.9375 -1.421875 27.875 -1.421875 
Q 17.96875 -1.421875 11.734375 6.484375 
Q 5.515625 14.40625 5.515625 27.296875 
Q 5.515625 40.1875 11.734375 48.09375 
Q 17.96875 56 27.875 56 
Q 33.9375 56 38.25 53.625 
Q 42.578125 51.265625 45.40625 46.390625 
z
M 14.796875 27.296875 
Q 14.796875 17.390625 18.875 11.75 
Q 22.953125 6.109375 30.078125 6.109375 
Q 37.203125 6.109375 41.296875 11.75 
Q 45.40625 17.390625 45.40625 27.296875 
Q 45.40625 37.203125 41.296875 42.84375 
Q 37.203125 48.484375 30.078125 48.484375 
Q 22.953125 48.484375 18.875 42.84375 
Q 14.796875 37.203125 14.796875 27.296875 
z
" id="DejaVuSans-100"/>
      <path d="M 9.421875 75.984375 
L 18.40625 75.984375 
L 18.40625 0 
L 9.421875 0 
z
" id="DejaVuSans-108"/>
     </defs>
     <g transform="translate(221.549637 250.503039)scale(0.12 -0.12)">
      <use xlink:href="#DejaVuSans-115"/>
      <use x="52.099609" xlink:href="#DejaVuSans-97"/>
      <use x="113.378906" xlink:href="#DejaVuSans-100"/>
      <use x="176.855469" xlink:href="#DejaVuSans-95"/>
      <use x="226.855469" xlink:href="#DejaVuSans-108"/>
     </g>
    </g>
   </g>
   <g id="text_6">
    <g clip-path="url(#pe78dd05aa7)">
     <!-- distress_l -->
     <defs>
      <path d="M 41.109375 46.296875 
Q 39.59375 47.171875 37.8125 47.578125 
Q 36.03125 48 33.890625 48 
Q 26.265625 48 22.1875 43.046875 
Q 18.109375 38.09375 18.109375 28.8125 
L 18.109375 0 
L 9.078125 0 
L 9.078125 54.6875 
L 18.109375 54.6875 
L 18.109375 46.1875 
Q 20.953125 51.171875 25.484375 53.578125 
Q 30.03125 56 36.53125 56 
Q 37.453125 56 38.578125 55.875 
Q 39.703125 55.765625 41.0625 55.515625 
z
" id="DejaVuSans-114"/>
     </defs>
     <g transform="translate(108.167867 247.872667)scale(0.12 -0.12)">
      <use xlink:href="#DejaVuSans-100"/>
      <use x="63.476562" xlink:href="#DejaVuSans-105"/>
      <use x="91.259766" xlink:href="#DejaVuSans-115"/>
      <use x="143.359375" xlink:href="#DejaVuSans-116"/>
      <use x="182.568359" xlink:href="#DejaVuSans-114"/>
      <use x="221.431641" xlink:href="#DejaVuSans-101"/>
      <use x="282.955078" xlink:href="#DejaVuSans-115"/>
      <use x="335.054688" xlink:href="#DejaVuSans-115"/>
      <use x="387.154297" xlink:href="#DejaVuSans-95"/>
      <use x="437.154297" xlink:href="#DejaVuSans-108"/>
     </g>
    </g>
   </g>
   <g id="text_7">
    <g clip-path="url(#pe78dd05aa7)">
     <!-- swallow_s -->
     <defs>
      <path d="M 4.203125 54.6875 
L 13.1875 54.6875 
L 24.421875 12.015625 
L 35.59375 54.6875 
L 46.1875 54.6875 
L 57.421875 12.015625 
L 68.609375 54.6875 
L 77.59375 54.6875 
L 63.28125 0 
L 52.6875 0 
L 40.921875 44.828125 
L 29.109375 0 
L 18.5 0 
z
" id="DejaVuSans-119"/>
     </defs>
     <g transform="translate(67.087959 241.48441)scale(0.12 -0.12)">
      <use xlink:href="#DejaVuSans-115"/>
      <use x="52.099609" xlink:href="#DejaVuSans-119"/>
      <use x="133.886719" xlink:href="#DejaVuSans-97"/>
      <use x="195.166016" xlink:href="#DejaVuSans-108"/>
      <use x="222.949219" xlink:href="#DejaVuSans-108"/>
      <use x="250.732422" xlink:href="#DejaVuSans-111"/>
      <use x="311.914062" xlink:href="#DejaVuSans-119"/>
      <use x="393.701172" xlink:href="#DejaVuSans-95"/>
      <use x="443.701172" xlink:href="#DejaVuSans-115"/>
     </g>
    </g>
   </g>
   <g id="text_8">
    <g clip-path="url(#pe78dd05aa7)">
     <!-- drymouth_s -->
     <defs>
      <path d="M 32.171875 -5.078125 
Q 28.375 -14.84375 24.75 -17.8125 
Q 21.140625 -20.796875 15.09375 -20.796875 
L 7.90625 -20.796875 
L 7.90625 -13.28125 
L 13.1875 -13.28125 
Q 16.890625 -13.28125 18.9375 -11.515625 
Q 21 -9.765625 23.484375 -3.21875 
L 25.09375 0.875 
L 2.984375 54.6875 
L 12.5 54.6875 
L 29.59375 11.921875 
L 46.6875 54.6875 
L 56.203125 54.6875 
z
" id="DejaVuSans-121"/>
      <path d="M 54.890625 33.015625 
L 54.890625 0 
L 45.90625 0 
L 45.90625 32.71875 
Q 45.90625 40.484375 42.875 44.328125 
Q 39.84375 48.1875 33.796875 48.1875 
Q 26.515625 48.1875 22.3125 43.546875 
Q 18.109375 38.921875 18.109375 30.90625 
L 18.109375 0 
L 9.078125 0 
L 9.078125 75.984375 
L 18.109375 75.984375 
L 18.109375 46.1875 
Q 21.34375 51.125 25.703125 53.5625 
Q 30.078125 56 35.796875 56 
Q 45.21875 56 50.046875 50.171875 
Q 54.890625 44.34375 54.890625 33.015625 
z
" id="DejaVuSans-104"/>
     </defs>
     <g transform="translate(175.825135 263.334889)scale(0.12 -0.12)">
      <use xlink:href="#DejaVuSans-100"/>
      <use x="63.476562" xlink:href="#DejaVuSans-114"/>
      <use x="104.589844" xlink:href="#DejaVuSans-121"/>
      <use x="163.769531" xlink:href="#DejaVuSans-109"/>
      <use x="261.181641" xlink:href="#DejaVuSans-111"/>
      <use x="322.363281" xlink:href="#DejaVuSans-117"/>
      <use x="385.742188" xlink:href="#DejaVuSans-116"/>
      <use x="424.951172" xlink:href="#DejaVuSans-104"/>
      <use x="488.330078" xlink:href="#DejaVuSans-95"/>
      <use x="538.330078" xlink:href="#DejaVuSans-115"/>
     </g>
    </g>
   </g>
   <g id="text_9">
    <g clip-path="url(#pe78dd05aa7)">
     <!-- R0 -->
     <defs>
      <path d="M 44.390625 34.1875 
Q 47.5625 33.109375 50.5625 29.59375 
Q 53.5625 26.078125 56.59375 19.921875 
L 66.609375 0 
L 56 0 
L 46.6875 18.703125 
Q 43.0625 26.03125 39.671875 28.421875 
Q 36.28125 30.8125 30.421875 30.8125 
L 19.671875 30.8125 
L 19.671875 0 
L 9.8125 0 
L 9.8125 72.90625 
L 32.078125 72.90625 
Q 44.578125 72.90625 50.734375 67.671875 
Q 56.890625 62.453125 56.890625 51.90625 
Q 56.890625 45.015625 53.6875 40.46875 
Q 50.484375 35.9375 44.390625 34.1875 
z
M 19.671875 64.796875 
L 19.671875 38.921875 
L 32.078125 38.921875 
Q 39.203125 38.921875 42.84375 42.21875 
Q 46.484375 45.515625 46.484375 51.90625 
Q 46.484375 58.296875 42.84375 61.546875 
Q 39.203125 64.796875 32.078125 64.796875 
z
" id="DejaVuSans-82"/>
      <path d="M 31.78125 66.40625 
Q 24.171875 66.40625 20.328125 58.90625 
Q 16.5 51.421875 16.5 36.375 
Q 16.5 21.390625 20.328125 13.890625 
Q 24.171875 6.390625 31.78125 6.390625 
Q 39.453125 6.390625 43.28125 13.890625 
Q 47.125 21.390625 47.125 36.375 
Q 47.125 51.421875 43.28125 58.90625 
Q 39.453125 66.40625 31.78125 66.40625 
z
M 31.78125 74.21875 
Q 44.046875 74.21875 50.515625 64.515625 
Q 56.984375 54.828125 56.984375 36.375 
Q 56.984375 17.96875 50.515625 8.265625 
Q 44.046875 -1.421875 31.78125 -1.421875 
Q 19.53125 -1.421875 13.0625 8.265625 
Q 6.59375 17.96875 6.59375 36.375 
Q 6.59375 54.828125 13.0625 64.515625 
Q 19.53125 74.21875 31.78125 74.21875 
z
" id="DejaVuSans-48"/>
     </defs>
     <g transform="translate(255.441043 33.144299)scale(0.12 -0.12)">
      <use xlink:href="#DejaVuSans-82"/>
      <use x="69.482422" xlink:href="#DejaVuSans-48"/>
     </g>
    </g>
   </g>
   <g id="text_10">
    <g clip-path="url(#pe78dd05aa7)">
     <!-- { -->
     <defs>
      <path d="M 51.125 -9.28125 
L 51.125 -16.3125 
L 48.09375 -16.3125 
Q 35.9375 -16.3125 31.8125 -12.6875 
Q 27.6875 -9.078125 27.6875 1.703125 
L 27.6875 13.375 
Q 27.6875 20.75 25.046875 23.578125 
Q 22.40625 26.421875 15.484375 26.421875 
L 12.5 26.421875 
L 12.5 33.40625 
L 15.484375 33.40625 
Q 22.46875 33.40625 25.078125 36.203125 
Q 27.6875 39.015625 27.6875 46.296875 
L 27.6875 58.015625 
Q 27.6875 68.796875 31.8125 72.390625 
Q 35.9375 75.984375 48.09375 75.984375 
L 51.125 75.984375 
L 51.125 69 
L 47.796875 69 
Q 40.921875 69 38.8125 66.84375 
Q 36.71875 64.703125 36.71875 57.8125 
L 36.71875 45.703125 
Q 36.71875 38.03125 34.5 34.5625 
Q 32.28125 31.109375 26.90625 29.890625 
Q 32.328125 28.5625 34.515625 25.09375 
Q 36.71875 21.625 36.71875 14.015625 
L 36.71875 1.90625 
Q 36.71875 -4.984375 38.8125 -7.125 
Q 40.921875 -9.28125 47.796875 -9.28125 
z
" id="DejaVuSans-123"/>
     </defs>
     <g transform="translate(367.980548 112.195335)scale(0.12 -0.12)">
      <use xlink:href="#DejaVuSans-123"/>
     </g>
    </g>
   </g>
   <g id="text_11">
    <g clip-path="url(#pe78dd05aa7)">
     <!-- m -->
     <g transform="translate(319.622998 58.0801)scale(0.12 -0.12)">
      <use xlink:href="#DejaVuSans-109"/>
     </g>
    </g>
   </g>
   <g id="text_12">
    <g clip-path="url(#pe78dd05aa7)">
     <!-- u -->
     <g transform="translate(75.883347 46.957447)scale(0.12 -0.12)">
      <use xlink:href="#DejaVuSans-117"/>
     </g>
    </g>
   </g>
   <g id="text_13">
    <g clip-path="url(#pe78dd05aa7)">
     <!-- c -->
     <g transform="translate(121.201911 36.080229)scale(0.12 -0.12)">
      <use xlink:href="#DejaVuSans-99"/>
     </g>
    </g>
   </g>
   <g id="text_14">
    <g clip-path="url(#pe78dd05aa7)">
     <!-- o -->
     <g transform="translate(329.441327 232.184078)scale(0.12 -0.12)">
      <use xlink:href="#DejaVuSans-111"/>
     </g>
    </g>
   </g>
   <g id="text_15">
    <g clip-path="url(#pe78dd05aa7)">
     <!-- s -->
     <g transform="translate(35.388691 111.192707)scale(0.12 -0.12)">
      <use xlink:href="#DejaVuSans-115"/>
     </g>
    </g>
   </g>
   <g id="text_16">
    <g clip-path="url(#pe78dd05aa7)">
     <!-- i -->
     <g transform="translate(43.200207 83.231346)scale(0.12 -0.12)">
      <use xlink:href="#DejaVuSans-105"/>
     </g>
    </g>
   </g>
   <g id="text_17">
    <g clip-path="url(#pe78dd05aa7)">
     <!-- t -->
     <g transform="translate(228.738348 19.570085)scale(0.12 -0.12)">
      <use xlink:href="#DejaVuSans-116"/>
     </g>
    </g>
   </g>
   <g id="text_18">
    <g clip-path="url(#pe78dd05aa7)">
     <!-- _ -->
     <g transform="translate(81.51784 70.304103)scale(0.12 -0.12)">
      <use xlink:href="#DejaVuSans-95"/>
     </g>
    </g>
   </g>
   <g id="text_19">
    <g clip-path="url(#pe78dd05aa7)">
     <!-- } -->
     <defs>
      <path d="M 12.5 -9.28125 
L 15.921875 -9.28125 
Q 22.75 -9.28125 24.828125 -7.171875 
Q 26.90625 -5.078125 26.90625 1.90625 
L 26.90625 14.015625 
Q 26.90625 21.625 29.09375 25.09375 
Q 31.296875 28.5625 36.71875 29.890625 
Q 31.296875 31.109375 29.09375 34.5625 
Q 26.90625 38.03125 26.90625 45.703125 
L 26.90625 57.8125 
Q 26.90625 64.75 24.828125 66.875 
Q 22.75 69 15.921875 69 
L 12.5 69 
L 12.5 75.984375 
L 15.578125 75.984375 
Q 27.734375 75.984375 31.8125 72.390625 
Q 35.890625 68.796875 35.890625 58.015625 
L 35.890625 46.296875 
Q 35.890625 39.015625 38.515625 36.203125 
Q 41.15625 33.40625 48.09375 33.40625 
L 51.125 33.40625 
L 51.125 26.421875 
L 48.09375 26.421875 
Q 41.15625 26.421875 38.515625 23.578125 
Q 35.890625 20.75 35.890625 13.375 
L 35.890625 1.703125 
Q 35.890625 -9.078125 31.8125 -12.6875 
Q 27.734375 -16.3125 15.578125 -16.3125 
L 12.5 -16.3125 
z
" id="DejaVuSans-125"/>
     </defs>
     <g transform="translate(390.694897 161.895486)scale(0.12 -0.12)">
      <use xlink:href="#DejaVuSans-125"/>
     </g>
    </g>
   </g>
   <g id="text_20">
    <g clip-path="url(#pe78dd05aa7)">
     <!-- R1 -->
     <defs>
      <path d="M 12.40625 8.296875 
L 28.515625 8.296875 
L 28.515625 63.921875 
L 10.984375 60.40625 
L 10.984375 69.390625 
L 28.421875 72.90625 
L 38.28125 72.90625 
L 38.28125 8.296875 
L 54.390625 8.296875 
L 54.390625 0 
L 12.40625 0 
z
" id="DejaVuSans-49"/>
     </defs>
     <g transform="translate(262.105845 257.586614)scale(0.12 -0.12)">
      <use xlink:href="#DejaVuSans-82"/>
      <use x="69.482422" xlink:href="#DejaVuSans-49"/>
     </g>
    </g>
   </g>
   <g id="text_21">
    <g clip-path="url(#pe78dd05aa7)">
     <!-- w -->
     <g transform="translate(167.156311 255.681447)scale(0.12 -0.12)">
      <use xlink:href="#DejaVuSans-119"/>
     </g>
    </g>
   </g>
   <g id="text_22">
    <g clip-path="url(#pe78dd05aa7)">
     <!-- a -->
     <g transform="translate(33.810728 188.129072)scale(0.12 -0.12)">
      <use xlink:href="#DejaVuSans-97"/>
     </g>
    </g>
   </g>
   <g id="text_23">
    <g clip-path="url(#pe78dd05aa7)">
     <!-- l -->
     <g transform="translate(305.132398 250.109742)scale(0.12 -0.12)">
      <use xlink:href="#DejaVuSans-108"/>
     </g>
    </g>
   </g>
   <g id="text_24">
    <g clip-path="url(#pe78dd05aa7)">
     <!-- R2 -->
     <defs>
      <path d="M 19.1875 8.296875 
L 53.609375 8.296875 
L 53.609375 0 
L 7.328125 0 
L 7.328125 8.296875 
Q 12.9375 14.109375 22.625 23.890625 
Q 32.328125 33.6875 34.8125 36.53125 
Q 39.546875 41.84375 41.421875 45.53125 
Q 43.3125 49.21875 43.3125 52.78125 
Q 43.3125 58.59375 39.234375 62.25 
Q 35.15625 65.921875 28.609375 65.921875 
Q 23.96875 65.921875 18.8125 64.3125 
Q 13.671875 62.703125 7.8125 59.421875 
L 7.8125 69.390625 
Q 13.765625 71.78125 18.9375 73 
Q 24.125 74.21875 28.421875 74.21875 
Q 39.75 74.21875 46.484375 68.546875 
Q 53.21875 62.890625 53.21875 53.421875 
Q 53.21875 48.921875 51.53125 44.890625 
Q 49.859375 40.875 45.40625 35.40625 
Q 44.1875 33.984375 37.640625 27.21875 
Q 31.109375 20.453125 19.1875 8.296875 
z
" id="DejaVuSans-50"/>
     </defs>
     <g transform="translate(191.325659 33.38867)scale(0.12 -0.12)">
      <use xlink:href="#DejaVuSans-82"/>
      <use x="69.482422" xlink:href="#DejaVuSans-50"/>
     </g>
    </g>
   </g>
   <g id="text_25">
    <g clip-path="url(#pe78dd05aa7)">
     <!-- R3 -->
     <defs>
      <path d="M 40.578125 39.3125 
Q 47.65625 37.796875 51.625 33 
Q 55.609375 28.21875 55.609375 21.1875 
Q 55.609375 10.40625 48.1875 4.484375 
Q 40.765625 -1.421875 27.09375 -1.421875 
Q 22.515625 -1.421875 17.65625 -0.515625 
Q 12.796875 0.390625 7.625 2.203125 
L 7.625 11.71875 
Q 11.71875 9.328125 16.59375 8.109375 
Q 21.484375 6.890625 26.8125 6.890625 
Q 36.078125 6.890625 40.9375 10.546875 
Q 45.796875 14.203125 45.796875 21.1875 
Q 45.796875 27.640625 41.28125 31.265625 
Q 36.765625 34.90625 28.71875 34.90625 
L 20.21875 34.90625 
L 20.21875 43.015625 
L 29.109375 43.015625 
Q 36.375 43.015625 40.234375 45.921875 
Q 44.09375 48.828125 44.09375 54.296875 
Q 44.09375 59.90625 40.109375 62.90625 
Q 36.140625 65.921875 28.71875 65.921875 
Q 24.65625 65.921875 20.015625 65.03125 
Q 15.375 64.15625 9.8125 62.3125 
L 9.8125 71.09375 
Q 15.4375 72.65625 20.34375 73.4375 
Q 25.25 74.21875 29.59375 74.21875 
Q 40.828125 74.21875 47.359375 69.109375 
Q 53.90625 64.015625 53.90625 55.328125 
Q 53.90625 49.265625 50.4375 45.09375 
Q 46.96875 40.921875 40.578125 39.3125 
z
" id="DejaVuSans-51"/>
     </defs>
     <g transform="translate(383.777531 132.579905)scale(0.12 -0.12)">
      <use xlink:href="#DejaVuSans-82"/>
      <use x="69.482422" xlink:href="#DejaVuSans-51"/>
     </g>
    </g>
   </g>
   <g id="text_26">
    <g clip-path="url(#pe78dd05aa7)">
     <!-- d -->
     <g transform="translate(339.158423 80.554831)scale(0.12 -0.12)">
      <use xlink:href="#DejaVuSans-100"/>
     </g>
    </g>
   </g>
   <g id="text_27">
    <g clip-path="url(#pe78dd05aa7)">
     <!-- r -->
     <g transform="translate(370.502673 81.588904)scale(0.12 -0.12)">
      <use xlink:href="#DejaVuSans-114"/>
     </g>
    </g>
   </g>
   <g id="text_28">
    <g clip-path="url(#pe78dd05aa7)">
     <!-- y -->
     <g transform="translate(38.799602 159.116998)scale(0.12 -0.12)">
      <use xlink:href="#DejaVuSans-121"/>
     </g>
    </g>
   </g>
   <g id="text_29">
    <g clip-path="url(#pe78dd05aa7)">
     <!-- h -->
     <g transform="translate(360.192505 216.035584)scale(0.12 -0.12)">
      <use xlink:href="#DejaVuSans-104"/>
     </g>
    </g>
   </g>
   <g id="text_30">
    <g clip-path="url(#pe78dd05aa7)">
     <!-- R4 -->
     <defs>
      <path d="M 37.796875 64.3125 
L 12.890625 25.390625 
L 37.796875 25.390625 
z
M 35.203125 72.90625 
L 47.609375 72.90625 
L 47.609375 25.390625 
L 58.015625 25.390625 
L 58.015625 17.1875 
L 47.609375 17.1875 
L 47.609375 0 
L 37.796875 0 
L 37.796875 17.1875 
L 4.890625 17.1875 
L 4.890625 26.703125 
z
" id="DejaVuSans-52"/>
     </defs>
     <g transform="translate(153.812422 32.681871)scale(0.12 -0.12)">
      <use xlink:href="#DejaVuSans-82"/>
      <use x="69.482422" xlink:href="#DejaVuSans-52"/>
     </g>
    </g>
   </g>
   <g id="text_31">
    <g clip-path="url(#pe78dd05aa7)">
     <!-- p -->
     <g transform="translate(356.391266 168.338878)scale(0.12 -0.12)">
      <use xlink:href="#DejaVuSans-112"/>
     </g>
    </g>
   </g>
   <g id="text_32">
    <g clip-path="url(#pe78dd05aa7)">
     <!-- n -->
     <g transform="translate(80.929734 220.295712)scale(0.12 -0.12)">
      <use xlink:href="#DejaVuSans-110"/>
     </g>
    </g>
   </g>
  </g>
 </g>
 <defs>
  <clipPath id="pe78dd05aa7">
   <rect height="288" width="432" x="0" y="0"/>
  </clipPath>
 </defs>
</svg>
