<?xml version="1.0" encoding="utf-8" standalone="no"?>
<!DOCTYPE svg PUBLIC "-//W3C//DTD SVG 1.1//EN"
  "http://www.w3.org/Graphics/SVG/1.1/DTD/svg11.dtd">
<!-- Created with matplotlib (https://matplotlib.org/) -->
<svg height="288pt" version="1.1" viewBox="0 0 432 288" width="432pt" xmlns="http://www.w3.org/2000/svg" xmlns:xlink="http://www.w3.org/1999/xlink">
 <defs>
  <style type="text/css">
*{stroke-linecap:butt;stroke-linejoin:round;}
  </style>
 </defs>
 <g id="figure_1">
  <g id="patch_1">
   <path d="M 0 288 
L 432 288 
L 432 0 
L 0 0 
z
" style="fill:#ffffff;"/>
  </g>
  <g id="axes_1">
   <g id="patch_2">
    <path clip-path="url(#p9afbf7cfbc)" d="M 394.512397 124.791083 
Q 335.604828 185.402567 278.255699 244.410533 
" style="fill:none;stroke:#460b5e;stroke-linecap:round;stroke-width:2;"/>
    <path clip-path="url(#p9afbf7cfbc)" d="M 282.477749 242.935985 
L 278.255699 244.410533 
L 279.60929 240.148164 
L 282.477749 242.935985 
z
" style="fill:#460b5e;stroke:#460b5e;stroke-linecap:round;stroke-width:2;"/>
   </g>
   <g id="patch_3">
    <path clip-path="url(#p9afbf7cfbc)" d="M 331.414611 24.991736 
Q 360.649905 71.23208 388.690254 115.582423 
" style="fill:none;stroke:#460b5e;stroke-linecap:round;stroke-width:2;"/>
    <path clip-path="url(#p9afbf7cfbc)" d="M 388.243137 111.132694 
L 388.690254 115.582423 
L 384.8622 113.270279 
L 388.243137 111.132694 
z
" style="fill:#460b5e;stroke:#460b5e;stroke-linecap:round;stroke-width:2;"/>
   </g>
   <g id="patch_4">
    <path clip-path="url(#p9afbf7cfbc)" d="M 331.414611 24.991736 
Q 355.05641 116.344979 378.137982 205.533472 
" style="fill:none;stroke:#33628d;stroke-linecap:round;stroke-width:2;"/>
    <path clip-path="url(#p9afbf7cfbc)" d="M 379.072028 201.159966 
L 378.137982 205.533472 
L 375.199605 202.162131 
L 379.072028 201.159966 
z
" style="fill:#33628d;stroke:#33628d;stroke-linecap:round;stroke-width:2;"/>
   </g>
   <g id="patch_5">
    <path clip-path="url(#p9afbf7cfbc)" d="M 331.414611 24.991736 
Q 188.098509 116.618489 46.666354 207.040774 
" style="fill:none;stroke:#fde725;stroke-linecap:round;stroke-width:2;"/>
    <path clip-path="url(#p9afbf7cfbc)" d="M 51.113769 206.571206 
L 46.666354 207.040774 
L 48.959149 203.201101 
L 51.113769 206.571206 
z
" style="fill:#fde725;stroke:#fde725;stroke-linecap:round;stroke-width:2;"/>
   </g>
   <g id="patch_6">
    <path clip-path="url(#p9afbf7cfbc)" d="M 270.663162 252.222686 
Q 250.946547 147.486646 231.643607 44.948076 
" style="fill:none;stroke:#48186a;stroke-linecap:round;stroke-width:2;"/>
    <path clip-path="url(#p9afbf7cfbc)" d="M 230.418135 49.249031 
L 231.643607 44.948076 
L 234.349088 48.509027 
L 230.418135 49.249031 
z
" style="fill:#48186a;stroke:#48186a;stroke-linecap:round;stroke-width:2;"/>
   </g>
   <g id="patch_7">
    <path clip-path="url(#p9afbf7cfbc)" d="M 270.663162 252.222686 
Q 215.314293 257.225597 162.192414 262.027214 
" style="fill:none;stroke:#440154;stroke-linecap:round;stroke-width:2;"/>
    <path clip-path="url(#p9afbf7cfbc)" d="M 166.356216 263.659007 
L 162.192414 262.027214 
L 165.99613 259.675248 
L 166.356216 263.659007 
z
" style="fill:#440154;stroke:#440154;stroke-linecap:round;stroke-width:2;"/>
   </g>
   <g id="patch_8">
    <path clip-path="url(#p9afbf7cfbc)" d="M 270.663162 252.222686 
Q 158.648505 187.959165 48.573391 124.808374 
" style="fill:none;stroke:#54c568;stroke-linecap:round;stroke-width:2;"/>
    <path clip-path="url(#p9afbf7cfbc)" d="M 51.047699 128.533666 
L 48.573391 124.808374 
L 53.03821 125.064103 
L 51.047699 128.533666 
z
" style="fill:#54c568;stroke:#54c568;stroke-linecap:round;stroke-width:2;"/>
   </g>
   <g id="patch_9">
    <path clip-path="url(#p9afbf7cfbc)" d="M 229.627607 34.238942 
Q 276.208022 30.007177 320.561539 25.977722 
" style="fill:none;stroke:#48186a;stroke-linecap:round;stroke-width:2;"/>
    <path clip-path="url(#p9afbf7cfbc)" d="M 316.396992 24.347829 
L 320.561539 25.977722 
L 316.758896 28.331423 
L 316.396992 24.347829 
z
" style="fill:#48186a;stroke:#48186a;stroke-linecap:round;stroke-width:2;"/>
   </g>
   <g id="patch_10">
    <path clip-path="url(#p9afbf7cfbc)" d="M 380.867666 216.081127 
Q 329.880258 232.802443 281.017577 248.826956 
" style="fill:none;stroke:#33628d;stroke-linecap:round;stroke-width:2;"/>
    <path clip-path="url(#p9afbf7cfbc)" d="M 285.441645 249.480889 
L 281.017577 248.826956 
L 284.195164 245.680062 
L 285.441645 249.480889 
z
" style="fill:#33628d;stroke:#33628d;stroke-linecap:round;stroke-width:2;"/>
   </g>
   <g id="patch_11">
    <path clip-path="url(#p9afbf7cfbc)" d="M 108.941301 42.579252 
Q 241.255203 127.001776 371.68406 210.221552 
" style="fill:none;stroke:#33628d;stroke-linecap:round;stroke-width:2;"/>
    <path clip-path="url(#p9afbf7cfbc)" d="M 369.387759 206.383974 
L 371.68406 210.221552 
L 367.236217 209.756047 
L 369.387759 206.383974 
z
" style="fill:#33628d;stroke:#33628d;stroke-linecap:round;stroke-width:2;"/>
   </g>
   <g id="patch_12">
    <path clip-path="url(#p9afbf7cfbc)" d="M 108.941301 42.579252 
Q 129.321967 148.540638 149.280289 252.306204 
" style="fill:none;stroke:#440154;stroke-linecap:round;stroke-width:2;"/>
    <path clip-path="url(#p9afbf7cfbc)" d="M 150.488776 248.000445 
L 149.280289 252.306204 
L 146.560774 248.755959 
L 150.488776 248.000445 
z
" style="fill:#440154;stroke:#440154;stroke-linecap:round;stroke-width:2;"/>
   </g>
   <g id="patch_13">
    <path clip-path="url(#p9afbf7cfbc)" d="M 151.338728 263.008264 
Q 238.764943 147.452068 324.842032 33.679087 
" style="fill:none;stroke:#440154;stroke-linecap:round;stroke-width:2;"/>
    <path clip-path="url(#p9afbf7cfbc)" d="M 320.833685 35.662306 
L 324.842032 33.679087 
L 324.023599 38.075696 
L 320.833685 35.662306 
z
" style="fill:#440154;stroke:#440154;stroke-linecap:round;stroke-width:2;"/>
   </g>
   <g id="patch_14">
    <path clip-path="url(#p9afbf7cfbc)" d="M 37.487603 212.909054 
Q 71.539211 131.737557 104.725813 52.628042 
" style="fill:none;stroke:#fde725;stroke-linecap:round;stroke-width:2;"/>
    <path clip-path="url(#p9afbf7cfbc)" d="M 101.334153 55.542941 
L 104.725813 52.628042 
L 105.022736 57.09031 
L 101.334153 55.542941 
z
" style="fill:#fde725;stroke:#fde725;stroke-linecap:round;stroke-width:2;"/>
   </g>
   <g id="patch_15">
    <path clip-path="url(#p9afbf7cfbc)" d="M 37.487603 212.909054 
Q 149.804032 231.845716 259.915512 250.410621 
" style="fill:none;stroke:#fde725;stroke-linecap:round;stroke-width:2;"/>
    <path clip-path="url(#p9afbf7cfbc)" d="M 256.30369 247.773437 
L 259.915512 250.410621 
L 255.638671 251.717769 
L 256.30369 247.773437 
z
" style="fill:#fde725;stroke:#fde725;stroke-linecap:round;stroke-width:2;"/>
   </g>
   <g id="patch_16">
    <path clip-path="url(#p9afbf7cfbc)" d="M 39.118977 119.384316 
Q 181.147913 73.518158 321.048983 28.339163 
" style="fill:none;stroke:#54c568;stroke-linecap:round;stroke-width:2;"/>
    <path clip-path="url(#p9afbf7cfbc)" d="M 316.627926 27.665177 
L 321.048983 28.339163 
L 317.85716 31.471616 
L 316.627926 27.665177 
z
" style="fill:#54c568;stroke:#54c568;stroke-linecap:round;stroke-width:2;"/>
   </g>
   <g id="patch_17">
    <path clip-path="url(#p9afbf7cfbc)" d="M 39.118977 119.384316 
Q 71.11839 84.18473 101.613665 50.639705 
" style="fill:none;stroke:#54c568;stroke-linecap:round;stroke-width:2;"/>
    <path clip-path="url(#p9afbf7cfbc)" d="M 97.443099 52.254133 
L 101.613665 50.639705 
L 100.402868 54.944814 
L 97.443099 52.254133 
z
" style="fill:#54c568;stroke:#54c568;stroke-linecap:round;stroke-width:2;"/>
   </g>
   <g id="PathCollection_1">
    <defs>
     <path d="M 0 8.660254 
C 2.296726 8.660254 4.499694 7.747755 6.123724 6.123724 
C 7.747755 4.499694 8.660254 2.296726 8.660254 0 
C 8.660254 -2.296726 7.747755 -4.499694 6.123724 -6.123724 
C 4.499694 -7.747755 2.296726 -8.660254 0 -8.660254 
C -2.296726 -8.660254 -4.499694 -7.747755 -6.123724 -6.123724 
C -7.747755 -4.499694 -8.660254 -2.296726 -8.660254 0 
C -8.660254 2.296726 -7.747755 4.499694 -6.123724 6.123724 
C -4.499694 7.747755 -2.296726 8.660254 0 8.660254 
z
" id="C0_0_0ca41c3980"/>
    </defs>
    <g clip-path="url(#p9afbf7cfbc)">
     <use style="fill:#ffff00;stroke:#ffff00;" x="394.512397" xlink:href="#C0_0_0ca41c3980" y="124.791083"/>
    </g>
    <g clip-path="url(#p9afbf7cfbc)">
     <use style="fill:#008000;stroke:#008000;" x="331.414611" xlink:href="#C0_0_0ca41c3980" y="24.991736"/>
    </g>
    <g clip-path="url(#p9afbf7cfbc)">
     <use style="fill:#008000;stroke:#008000;" x="270.663162" xlink:href="#C0_0_0ca41c3980" y="252.222686"/>
    </g>
    <g clip-path="url(#p9afbf7cfbc)">
     <use style="fill:#ffff00;stroke:#ffff00;" x="229.627607" xlink:href="#C0_0_0ca41c3980" y="34.238942"/>
    </g>
    <g clip-path="url(#p9afbf7cfbc)">
     <use style="fill:#ffff00;stroke:#ffff00;" x="380.867666" xlink:href="#C0_0_0ca41c3980" y="216.081127"/>
    </g>
    <g clip-path="url(#p9afbf7cfbc)">
     <use style="fill:#008000;stroke:#008000;" x="108.941301" xlink:href="#C0_0_0ca41c3980" y="42.579252"/>
    </g>
    <g clip-path="url(#p9afbf7cfbc)">
     <use style="fill:#ffff00;stroke:#ffff00;" x="151.338728" xlink:href="#C0_0_0ca41c3980" y="263.008264"/>
    </g>
    <g clip-path="url(#p9afbf7cfbc)">
     <use style="fill:#ffff00;stroke:#ffff00;" x="37.487603" xlink:href="#C0_0_0ca41c3980" y="212.909054"/>
    </g>
    <g clip-path="url(#p9afbf7cfbc)">
     <use style="fill:#ffff00;stroke:#ffff00;" x="39.118977" xlink:href="#C0_0_0ca41c3980" y="119.384316"/>
    </g>
   </g>
   <g id="text_1">
    <g clip-path="url(#p9afbf7cfbc)">
     <!-- R0 -->
     <defs>
      <path d="M 44.390625 34.1875 
Q 47.5625 33.109375 50.5625 29.59375 
Q 53.5625 26.078125 56.59375 19.921875 
L 66.609375 0 
L 56 0 
L 46.6875 18.703125 
Q 43.0625 26.03125 39.671875 28.421875 
Q 36.28125 30.8125 30.421875 30.8125 
L 19.671875 30.8125 
L 19.671875 0 
L 9.8125 0 
L 9.8125 72.90625 
L 32.078125 72.90625 
Q 44.578125 72.90625 50.734375 67.671875 
Q 56.890625 62.453125 56.890625 51.90625 
Q 56.890625 45.015625 53.6875 40.46875 
Q 50.484375 35.9375 44.390625 34.1875 
z
M 19.671875 64.796875 
L 19.671875 38.921875 
L 32.078125 38.921875 
Q 39.203125 38.921875 42.84375 42.21875 
Q 46.484375 45.515625 46.484375 51.90625 
Q 46.484375 58.296875 42.84375 61.546875 
Q 39.203125 64.796875 32.078125 64.796875 
z
" id="DejaVuSans-82"/>
      <path d="M 31.78125 66.40625 
Q 24.171875 66.40625 20.328125 58.90625 
Q 16.5 51.421875 16.5 36.375 
Q 16.5 21.390625 20.328125 13.890625 
Q 24.171875 6.390625 31.78125 6.390625 
Q 39.453125 6.390625 43.28125 13.890625 
Q 47.125 21.390625 47.125 36.375 
Q 47.125 51.421875 43.28125 58.90625 
Q 39.453125 66.40625 31.78125 66.40625 
z
M 31.78125 74.21875 
Q 44.046875 74.21875 50.515625 64.515625 
Q 56.984375 54.828125 56.984375 36.375 
Q 56.984375 17.96875 50.515625 8.265625 
Q 44.046875 -1.421875 31.78125 -1.421875 
Q 19.53125 -1.421875 13.0625 8.265625 
Q 6.59375 17.96875 6.59375 36.375 
Q 6.59375 54.828125 13.0625 64.515625 
Q 19.53125 74.21875 31.78125 74.21875 
z
" id="DejaVuSans-48"/>
     </defs>
     <g transform="translate(386.525834 119.558014)scale(0.12 -0.12)">
      <use xlink:href="#DejaVuSans-82"/>
      <use x="69.482422" xlink:href="#DejaVuSans-48"/>
     </g>
    </g>
   </g>
   <g id="text_2">
    <g clip-path="url(#p9afbf7cfbc)">
     <!-- Eggs -->
     <defs>
      <path d="M 9.8125 72.90625 
L 55.90625 72.90625 
L 55.90625 64.59375 
L 19.671875 64.59375 
L 19.671875 43.015625 
L 54.390625 43.015625 
L 54.390625 34.71875 
L 19.671875 34.71875 
L 19.671875 8.296875 
L 56.78125 8.296875 
L 56.78125 0 
L 9.8125 0 
z
" id="DejaVuSans-69"/>
      <path d="M 45.40625 27.984375 
Q 45.40625 37.75 41.375 43.109375 
Q 37.359375 48.484375 30.078125 48.484375 
Q 22.859375 48.484375 18.828125 43.109375 
Q 14.796875 37.75 14.796875 27.984375 
Q 14.796875 18.265625 18.828125 12.890625 
Q 22.859375 7.515625 30.078125 7.515625 
Q 37.359375 7.515625 41.375 12.890625 
Q 45.40625 18.265625 45.40625 27.984375 
z
M 54.390625 6.78125 
Q 54.390625 -7.171875 48.1875 -13.984375 
Q 42 -20.796875 29.203125 -20.796875 
Q 24.46875 -20.796875 20.265625 -20.09375 
Q 16.0625 -19.390625 12.109375 -17.921875 
L 12.109375 -9.1875 
Q 16.0625 -11.328125 19.921875 -12.34375 
Q 23.78125 -13.375 27.78125 -13.375 
Q 36.625 -13.375 41.015625 -8.765625 
Q 45.40625 -4.15625 45.40625 5.171875 
L 45.40625 9.625 
Q 42.625 4.78125 38.28125 2.390625 
Q 33.9375 0 27.875 0 
Q 17.828125 0 11.671875 7.65625 
Q 5.515625 15.328125 5.515625 27.984375 
Q 5.515625 40.671875 11.671875 48.328125 
Q 17.828125 56 27.875 56 
Q 33.9375 56 38.28125 53.609375 
Q 42.625 51.21875 45.40625 46.390625 
L 45.40625 54.6875 
L 54.390625 54.6875 
z
" id="DejaVuSans-103"/>
      <path d="M 44.28125 53.078125 
L 44.28125 44.578125 
Q 40.484375 46.53125 36.375 47.5 
Q 32.28125 48.484375 27.875 48.484375 
Q 21.1875 48.484375 17.84375 46.4375 
Q 14.5 44.390625 14.5 40.28125 
Q 14.5 37.15625 16.890625 35.375 
Q 19.28125 33.59375 26.515625 31.984375 
L 29.59375 31.296875 
Q 39.15625 29.25 43.1875 25.515625 
Q 47.21875 21.78125 47.21875 15.09375 
Q 47.21875 7.46875 41.1875 3.015625 
Q 35.15625 -1.421875 24.609375 -1.421875 
Q 20.21875 -1.421875 15.453125 -0.5625 
Q 10.6875 0.296875 5.421875 2 
L 5.421875 11.28125 
Q 10.40625 8.6875 15.234375 7.390625 
Q 20.0625 6.109375 24.8125 6.109375 
Q 31.15625 6.109375 34.5625 8.28125 
Q 37.984375 10.453125 37.984375 14.40625 
Q 37.984375 18.0625 35.515625 20.015625 
Q 33.0625 21.96875 24.703125 23.78125 
L 21.578125 24.515625 
Q 13.234375 26.265625 9.515625 29.90625 
Q 5.8125 33.546875 5.8125 39.890625 
Q 5.8125 47.609375 11.28125 51.796875 
Q 16.75 56 26.8125 56 
Q 31.78125 56 36.171875 55.265625 
Q 40.578125 54.546875 44.28125 53.078125 
z
" id="DejaVuSans-115"/>
     </defs>
     <g transform="translate(316.879611 19.758666)scale(0.12 -0.12)">
      <use xlink:href="#DejaVuSans-69"/>
      <use x="63.183594" xlink:href="#DejaVuSans-103"/>
      <use x="126.660156" xlink:href="#DejaVuSans-103"/>
      <use x="190.136719" xlink:href="#DejaVuSans-115"/>
     </g>
    </g>
   </g>
   <g id="text_3">
    <g clip-path="url(#p9afbf7cfbc)">
     <!-- Onion -->
     <defs>
      <path d="M 39.40625 66.21875 
Q 28.65625 66.21875 22.328125 58.203125 
Q 16.015625 50.203125 16.015625 36.375 
Q 16.015625 22.609375 22.328125 14.59375 
Q 28.65625 6.59375 39.40625 6.59375 
Q 50.140625 6.59375 56.421875 14.59375 
Q 62.703125 22.609375 62.703125 36.375 
Q 62.703125 50.203125 56.421875 58.203125 
Q 50.140625 66.21875 39.40625 66.21875 
z
M 39.40625 74.21875 
Q 54.734375 74.21875 63.90625 63.9375 
Q 73.09375 53.65625 73.09375 36.375 
Q 73.09375 19.140625 63.90625 8.859375 
Q 54.734375 -1.421875 39.40625 -1.421875 
Q 24.03125 -1.421875 14.8125 8.828125 
Q 5.609375 19.09375 5.609375 36.375 
Q 5.609375 53.65625 14.8125 63.9375 
Q 24.03125 74.21875 39.40625 74.21875 
z
" id="DejaVuSans-79"/>
      <path d="M 54.890625 33.015625 
L 54.890625 0 
L 45.90625 0 
L 45.90625 32.71875 
Q 45.90625 40.484375 42.875 44.328125 
Q 39.84375 48.1875 33.796875 48.1875 
Q 26.515625 48.1875 22.3125 43.546875 
Q 18.109375 38.921875 18.109375 30.90625 
L 18.109375 0 
L 9.078125 0 
L 9.078125 54.6875 
L 18.109375 54.6875 
L 18.109375 46.1875 
Q 21.34375 51.125 25.703125 53.5625 
Q 30.078125 56 35.796875 56 
Q 45.21875 56 50.046875 50.171875 
Q 54.890625 44.34375 54.890625 33.015625 
z
" id="DejaVuSans-110"/>
      <path d="M 9.421875 54.6875 
L 18.40625 54.6875 
L 18.40625 0 
L 9.421875 0 
z
M 9.421875 75.984375 
L 18.40625 75.984375 
L 18.40625 64.59375 
L 9.421875 64.59375 
z
" id="DejaVuSans-105"/>
      <path d="M 30.609375 48.390625 
Q 23.390625 48.390625 19.1875 42.75 
Q 14.984375 37.109375 14.984375 27.296875 
Q 14.984375 17.484375 19.15625 11.84375 
Q 23.34375 6.203125 30.609375 6.203125 
Q 37.796875 6.203125 41.984375 11.859375 
Q 46.1875 17.53125 46.1875 27.296875 
Q 46.1875 37.015625 41.984375 42.703125 
Q 37.796875 48.390625 30.609375 48.390625 
z
M 30.609375 56 
Q 42.328125 56 49.015625 48.375 
Q 55.71875 40.765625 55.71875 27.296875 
Q 55.71875 13.875 49.015625 6.21875 
Q 42.328125 -1.421875 30.609375 -1.421875 
Q 18.84375 -1.421875 12.171875 6.21875 
Q 5.515625 13.875 5.515625 27.296875 
Q 5.515625 40.765625 12.171875 48.375 
Q 18.84375 56 30.609375 56 
z
" id="DejaVuSans-111"/>
     </defs>
     <g transform="translate(252.996912 246.989617)scale(0.12 -0.12)">
      <use xlink:href="#DejaVuSans-79"/>
      <use x="78.710938" xlink:href="#DejaVuSans-110"/>
      <use x="142.089844" xlink:href="#DejaVuSans-105"/>
      <use x="169.873047" xlink:href="#DejaVuSans-111"/>
      <use x="231.054688" xlink:href="#DejaVuSans-110"/>
     </g>
    </g>
   </g>
   <g id="text_4">
    <g clip-path="url(#p9afbf7cfbc)">
     <!-- R1 -->
     <defs>
      <path d="M 12.40625 8.296875 
L 28.515625 8.296875 
L 28.515625 63.921875 
L 10.984375 60.40625 
L 10.984375 69.390625 
L 28.421875 72.90625 
L 38.28125 72.90625 
L 38.28125 8.296875 
L 54.390625 8.296875 
L 54.390625 0 
L 12.40625 0 
z
" id="DejaVuSans-49"/>
     </defs>
     <g transform="translate(221.641045 29.005873)scale(0.12 -0.12)">
      <use xlink:href="#DejaVuSans-82"/>
      <use x="69.482422" xlink:href="#DejaVuSans-49"/>
     </g>
    </g>
   </g>
   <g id="text_5">
    <g clip-path="url(#p9afbf7cfbc)">
     <!-- R2 -->
     <defs>
      <path d="M 19.1875 8.296875 
L 53.609375 8.296875 
L 53.609375 0 
L 7.328125 0 
L 7.328125 8.296875 
Q 12.9375 14.109375 22.625 23.890625 
Q 32.328125 33.6875 34.8125 36.53125 
Q 39.546875 41.84375 41.421875 45.53125 
Q 43.3125 49.21875 43.3125 52.78125 
Q 43.3125 58.59375 39.234375 62.25 
Q 35.15625 65.921875 28.609375 65.921875 
Q 23.96875 65.921875 18.8125 64.3125 
Q 13.671875 62.703125 7.8125 59.421875 
L 7.8125 69.390625 
Q 13.765625 71.78125 18.9375 73 
Q 24.125 74.21875 28.421875 74.21875 
Q 39.75 74.21875 46.484375 68.546875 
Q 53.21875 62.890625 53.21875 53.421875 
Q 53.21875 48.921875 51.53125 44.890625 
Q 49.859375 40.875 45.40625 35.40625 
Q 44.1875 33.984375 37.640625 27.21875 
Q 31.109375 20.453125 19.1875 8.296875 
z
" id="DejaVuSans-50"/>
     </defs>
     <g transform="translate(372.881104 210.848058)scale(0.12 -0.12)">
      <use xlink:href="#DejaVuSans-82"/>
      <use x="69.482422" xlink:href="#DejaVuSans-50"/>
     </g>
    </g>
   </g>
   <g id="text_6">
    <g clip-path="url(#p9afbf7cfbc)">
     <!-- Kidney Beans -->
     <defs>
      <path d="M 9.8125 72.90625 
L 19.671875 72.90625 
L 19.671875 42.09375 
L 52.390625 72.90625 
L 65.09375 72.90625 
L 28.90625 38.921875 
L 67.671875 0 
L 54.6875 0 
L 19.671875 35.109375 
L 19.671875 0 
L 9.8125 0 
z
" id="DejaVuSans-75"/>
      <path d="M 45.40625 46.390625 
L 45.40625 75.984375 
L 54.390625 75.984375 
L 54.390625 0 
L 45.40625 0 
L 45.40625 8.203125 
Q 42.578125 3.328125 38.25 0.953125 
Q 33.9375 -1.421875 27.875 -1.421875 
Q 17.96875 -1.421875 11.734375 6.484375 
Q 5.515625 14.40625 5.515625 27.296875 
Q 5.515625 40.1875 11.734375 48.09375 
Q 17.96875 56 27.875 56 
Q 33.9375 56 38.25 53.625 
Q 42.578125 51.265625 45.40625 46.390625 
z
M 14.796875 27.296875 
Q 14.796875 17.390625 18.875 11.75 
Q 22.953125 6.109375 30.078125 6.109375 
Q 37.203125 6.109375 41.296875 11.75 
Q 45.40625 17.390625 45.40625 27.296875 
Q 45.40625 37.203125 41.296875 42.84375 
Q 37.203125 48.484375 30.078125 48.484375 
Q 22.953125 48.484375 18.875 42.84375 
Q 14.796875 37.203125 14.796875 27.296875 
z
" id="DejaVuSans-100"/>
      <path d="M 56.203125 29.59375 
L 56.203125 25.203125 
L 14.890625 25.203125 
Q 15.484375 15.921875 20.484375 11.0625 
Q 25.484375 6.203125 34.421875 6.203125 
Q 39.59375 6.203125 44.453125 7.46875 
Q 49.3125 8.734375 54.109375 11.28125 
L 54.109375 2.78125 
Q 49.265625 0.734375 44.1875 -0.34375 
Q 39.109375 -1.421875 33.890625 -1.421875 
Q 20.796875 -1.421875 13.15625 6.1875 
Q 5.515625 13.8125 5.515625 26.8125 
Q 5.515625 40.234375 12.765625 48.109375 
Q 20.015625 56 32.328125 56 
Q 43.359375 56 49.78125 48.890625 
Q 56.203125 41.796875 56.203125 29.59375 
z
M 47.21875 32.234375 
Q 47.125 39.59375 43.09375 43.984375 
Q 39.0625 48.390625 32.421875 48.390625 
Q 24.90625 48.390625 20.390625 44.140625 
Q 15.875 39.890625 15.1875 32.171875 
z
" id="DejaVuSans-101"/>
      <path d="M 32.171875 -5.078125 
Q 28.375 -14.84375 24.75 -17.8125 
Q 21.140625 -20.796875 15.09375 -20.796875 
L 7.90625 -20.796875 
L 7.90625 -13.28125 
L 13.1875 -13.28125 
Q 16.890625 -13.28125 18.9375 -11.515625 
Q 21 -9.765625 23.484375 -3.21875 
L 25.09375 0.875 
L 2.984375 54.6875 
L 12.5 54.6875 
L 29.59375 11.921875 
L 46.6875 54.6875 
L 56.203125 54.6875 
z
" id="DejaVuSans-121"/>
      <path id="DejaVuSans-32"/>
      <path d="M 19.671875 34.8125 
L 19.671875 8.109375 
L 35.5 8.109375 
Q 43.453125 8.109375 47.28125 11.40625 
Q 51.125 14.703125 51.125 21.484375 
Q 51.125 28.328125 47.28125 31.5625 
Q 43.453125 34.8125 35.5 34.8125 
z
M 19.671875 64.796875 
L 19.671875 42.828125 
L 34.28125 42.828125 
Q 41.5 42.828125 45.03125 45.53125 
Q 48.578125 48.25 48.578125 53.8125 
Q 48.578125 59.328125 45.03125 62.0625 
Q 41.5 64.796875 34.28125 64.796875 
z
M 9.8125 72.90625 
L 35.015625 72.90625 
Q 46.296875 72.90625 52.390625 68.21875 
Q 58.5 63.53125 58.5 54.890625 
Q 58.5 48.1875 55.375 44.234375 
Q 52.25 40.28125 46.1875 39.3125 
Q 53.46875 37.75 57.5 32.78125 
Q 61.53125 27.828125 61.53125 20.40625 
Q 61.53125 10.640625 54.890625 5.3125 
Q 48.25 0 35.984375 0 
L 9.8125 0 
z
" id="DejaVuSans-66"/>
      <path d="M 34.28125 27.484375 
Q 23.390625 27.484375 19.1875 25 
Q 14.984375 22.515625 14.984375 16.5 
Q 14.984375 11.71875 18.140625 8.90625 
Q 21.296875 6.109375 26.703125 6.109375 
Q 34.1875 6.109375 38.703125 11.40625 
Q 43.21875 16.703125 43.21875 25.484375 
L 43.21875 27.484375 
z
M 52.203125 31.203125 
L 52.203125 0 
L 43.21875 0 
L 43.21875 8.296875 
Q 40.140625 3.328125 35.546875 0.953125 
Q 30.953125 -1.421875 24.3125 -1.421875 
Q 15.921875 -1.421875 10.953125 3.296875 
Q 6 8.015625 6 15.921875 
Q 6 25.140625 12.171875 29.828125 
Q 18.359375 34.515625 30.609375 34.515625 
L 43.21875 34.515625 
L 43.21875 35.40625 
Q 43.21875 41.609375 39.140625 45 
Q 35.0625 48.390625 27.6875 48.390625 
Q 23 48.390625 18.546875 47.265625 
Q 14.109375 46.140625 10.015625 43.890625 
L 10.015625 52.203125 
Q 14.9375 54.109375 19.578125 55.046875 
Q 24.21875 56 28.609375 56 
Q 40.484375 56 46.34375 49.84375 
Q 52.203125 43.703125 52.203125 31.203125 
z
" id="DejaVuSans-97"/>
     </defs>
     <g transform="translate(68.164738 37.346183)scale(0.12 -0.12)">
      <use xlink:href="#DejaVuSans-75"/>
      <use x="65.576172" xlink:href="#DejaVuSans-105"/>
      <use x="93.359375" xlink:href="#DejaVuSans-100"/>
      <use x="156.835938" xlink:href="#DejaVuSans-110"/>
      <use x="220.214844" xlink:href="#DejaVuSans-101"/>
      <use x="281.738281" xlink:href="#DejaVuSans-121"/>
      <use x="340.917969" xlink:href="#DejaVuSans-32"/>
      <use x="372.705078" xlink:href="#DejaVuSans-66"/>
      <use x="441.308594" xlink:href="#DejaVuSans-101"/>
      <use x="502.832031" xlink:href="#DejaVuSans-97"/>
      <use x="564.111328" xlink:href="#DejaVuSans-110"/>
      <use x="627.490234" xlink:href="#DejaVuSans-115"/>
     </g>
    </g>
   </g>
   <g id="text_7">
    <g clip-path="url(#p9afbf7cfbc)">
     <!-- R3 -->
     <defs>
      <path d="M 40.578125 39.3125 
Q 47.65625 37.796875 51.625 33 
Q 55.609375 28.21875 55.609375 21.1875 
Q 55.609375 10.40625 48.1875 4.484375 
Q 40.765625 -1.421875 27.09375 -1.421875 
Q 22.515625 -1.421875 17.65625 -0.515625 
Q 12.796875 0.390625 7.625 2.203125 
L 7.625 11.71875 
Q 11.71875 9.328125 16.59375 8.109375 
Q 21.484375 6.890625 26.8125 6.890625 
Q 36.078125 6.890625 40.9375 10.546875 
Q 45.796875 14.203125 45.796875 21.1875 
Q 45.796875 27.640625 41.28125 31.265625 
Q 36.765625 34.90625 28.71875 34.90625 
L 20.21875 34.90625 
L 20.21875 43.015625 
L 29.109375 43.015625 
Q 36.375 43.015625 40.234375 45.921875 
Q 44.09375 48.828125 44.09375 54.296875 
Q 44.09375 59.90625 40.109375 62.90625 
Q 36.140625 65.921875 28.71875 65.921875 
Q 24.65625 65.921875 20.015625 65.03125 
Q 15.375 64.15625 9.8125 62.3125 
L 9.8125 71.09375 
Q 15.4375 72.65625 20.34375 73.4375 
Q 25.25 74.21875 29.59375 74.21875 
Q 40.828125 74.21875 47.359375 69.109375 
Q 53.90625 64.015625 53.90625 55.328125 
Q 53.90625 49.265625 50.4375 45.09375 
Q 46.96875 40.921875 40.578125 39.3125 
z
" id="DejaVuSans-51"/>
     </defs>
     <g transform="translate(143.352166 257.775195)scale(0.12 -0.12)">
      <use xlink:href="#DejaVuSans-82"/>
      <use x="69.482422" xlink:href="#DejaVuSans-51"/>
     </g>
    </g>
   </g>
   <g id="text_8">
    <g clip-path="url(#p9afbf7cfbc)">
     <!-- R4 -->
     <defs>
      <path d="M 37.796875 64.3125 
L 12.890625 25.390625 
L 37.796875 25.390625 
z
M 35.203125 72.90625 
L 47.609375 72.90625 
L 47.609375 25.390625 
L 58.015625 25.390625 
L 58.015625 17.1875 
L 47.609375 17.1875 
L 47.609375 0 
L 37.796875 0 
L 37.796875 17.1875 
L 4.890625 17.1875 
L 4.890625 26.703125 
z
" id="DejaVuSans-52"/>
     </defs>
     <g transform="translate(29.501041 207.675985)scale(0.12 -0.12)">
      <use xlink:href="#DejaVuSans-82"/>
      <use x="69.482422" xlink:href="#DejaVuSans-52"/>
     </g>
    </g>
   </g>
   <g id="text_9">
    <g clip-path="url(#p9afbf7cfbc)">
     <!-- R5 -->
     <defs>
      <path d="M 10.796875 72.90625 
L 49.515625 72.90625 
L 49.515625 64.59375 
L 19.828125 64.59375 
L 19.828125 46.734375 
Q 21.96875 47.46875 24.109375 47.828125 
Q 26.265625 48.1875 28.421875 48.1875 
Q 40.625 48.1875 47.75 41.5 
Q 54.890625 34.8125 54.890625 23.390625 
Q 54.890625 11.625 47.5625 5.09375 
Q 40.234375 -1.421875 26.90625 -1.421875 
Q 22.3125 -1.421875 17.546875 -0.640625 
Q 12.796875 0.140625 7.71875 1.703125 
L 7.71875 11.625 
Q 12.109375 9.234375 16.796875 8.0625 
Q 21.484375 6.890625 26.703125 6.890625 
Q 35.15625 6.890625 40.078125 11.328125 
Q 45.015625 15.765625 45.015625 23.390625 
Q 45.015625 31 40.078125 35.4375 
Q 35.15625 39.890625 26.703125 39.890625 
Q 22.75 39.890625 18.8125 39.015625 
Q 14.890625 38.140625 10.796875 36.28125 
z
" id="DejaVuSans-53"/>
     </defs>
     <g transform="translate(31.132415 114.151247)scale(0.12 -0.12)">
      <use xlink:href="#DejaVuSans-82"/>
      <use x="69.482422" xlink:href="#DejaVuSans-53"/>
     </g>
    </g>
   </g>
  </g>
 </g>
 <defs>
  <clipPath id="p9afbf7cfbc">
   <rect height="288" width="432" x="0" y="0"/>
  </clipPath>
 </defs>
</svg>
